<mxfile host="app.diagrams.net" modified="2024-03-03T19:11:35.982Z" agent="Mozilla/5.0 (Macintosh; Intel Mac OS X 10_15_7) AppleWebKit/537.36 (KHTML, like Gecko) Chrome/122.0.0.0 Safari/537.36" etag="rlulehrRyWxgUxu8cshJ" version="24.0.0" type="device" pages="5">
  <diagram id="R2lEEEUBdFMjLlhIrx00" name="Basic shapes">
    <mxGraphModel dx="790" dy="672" grid="0" gridSize="10" guides="1" tooltips="1" connect="1" arrows="1" fold="1" page="0" pageScale="1" pageWidth="850" pageHeight="1100" background="#000000" math="0" shadow="0" extFonts="Permanent Marker^https://fonts.googleapis.com/css?family=Permanent+Marker">
      <root>
        <mxCell id="0" />
        <mxCell id="1" parent="0" />
        <mxCell id="sWjn2z7VL8cJMrQNKD__-4" value="assignment_id" style="ellipse;whiteSpace=wrap;html=1;align=center;strokeColor=#FFFFFF;fillColor=none;fontColor=#FFFFFF;" parent="1" vertex="1">
          <mxGeometry x="700" y="410" width="100" height="40" as="geometry" />
        </mxCell>
        <mxCell id="sWjn2z7VL8cJMrQNKD__-182" value="assignment" style="whiteSpace=wrap;html=1;align=center;strokeColor=#FFFFFF;fillColor=none;fontColor=#FFFFFF;" parent="1" vertex="1">
          <mxGeometry x="300" y="480" width="100" height="40" as="geometry" />
        </mxCell>
        <mxCell id="Ce3TjOt75USyeO9Dkmf0-3" value="assignment_instance_id" style="ellipse;whiteSpace=wrap;html=1;align=center;strokeColor=#FFFFFF;fillColor=none;fontColor=#FFFFFF;" parent="1" vertex="1">
          <mxGeometry x="720" y="650" width="143" height="41" as="geometry" />
        </mxCell>
        <mxCell id="Ce3TjOt75USyeO9Dkmf0-4" value="assignment_topic" style="ellipse;whiteSpace=wrap;html=1;align=center;strokeColor=#FFFFFF;fillColor=none;fontColor=#FFFFFF;" parent="1" vertex="1">
          <mxGeometry x="712" y="602" width="100" height="40" as="geometry" />
        </mxCell>
        <mxCell id="Ce3TjOt75USyeO9Dkmf0-8" value="" style="endArrow=none;dashed=1;html=1;dashPattern=1 3;strokeWidth=2;rounded=0;strokeColor=#FFFFFF;entryX=0;entryY=0.5;entryDx=0;entryDy=0;exitX=1;exitY=0.5;exitDx=0;exitDy=0;" parent="1" source="sWjn2z7VL8cJMrQNKD__-182" target="sWjn2z7VL8cJMrQNKD__-4" edge="1">
          <mxGeometry width="50" height="50" relative="1" as="geometry">
            <mxPoint x="400" y="503" as="sourcePoint" />
            <mxPoint x="460" y="442.5" as="targetPoint" />
          </mxGeometry>
        </mxCell>
        <mxCell id="Ce3TjOt75USyeO9Dkmf0-10" value="" style="endArrow=none;dashed=1;html=1;dashPattern=1 3;strokeWidth=2;rounded=0;strokeColor=#FFFFFF;exitX=1;exitY=0.5;exitDx=0;exitDy=0;entryX=-0.007;entryY=0.425;entryDx=0;entryDy=0;entryPerimeter=0;" parent="1" source="sWjn2z7VL8cJMrQNKD__-182" target="Ce3TjOt75USyeO9Dkmf0-127" edge="1">
          <mxGeometry width="50" height="50" relative="1" as="geometry">
            <mxPoint x="450" y="515" as="sourcePoint" />
            <mxPoint x="510" y="495" as="targetPoint" />
          </mxGeometry>
        </mxCell>
        <mxCell id="Ce3TjOt75USyeO9Dkmf0-14" value="" style="endArrow=none;dashed=1;html=1;dashPattern=1 3;strokeWidth=2;rounded=0;strokeColor=#FFFFFF;exitX=1;exitY=0.5;exitDx=0;exitDy=0;entryX=0;entryY=0.5;entryDx=0;entryDy=0;" parent="1" source="Ce3TjOt75USyeO9Dkmf0-164" target="Ce3TjOt75USyeO9Dkmf0-3" edge="1">
          <mxGeometry width="50" height="50" relative="1" as="geometry">
            <mxPoint x="475" y="549.0000000000001" as="sourcePoint" />
            <mxPoint x="535" y="549.0000000000001" as="targetPoint" />
          </mxGeometry>
        </mxCell>
        <mxCell id="Ce3TjOt75USyeO9Dkmf0-16" value="" style="endArrow=none;dashed=1;html=1;dashPattern=1 3;strokeWidth=2;rounded=0;strokeColor=#FFFFFF;entryX=1.016;entryY=0.606;entryDx=0;entryDy=0;entryPerimeter=0;exitX=0;exitY=0.5;exitDx=0;exitDy=0;" parent="1" source="Ce3TjOt75USyeO9Dkmf0-4" target="sWjn2z7VL8cJMrQNKD__-182" edge="1">
          <mxGeometry width="50" height="50" relative="1" as="geometry">
            <mxPoint x="470" y="580" as="sourcePoint" />
            <mxPoint x="410" y="520" as="targetPoint" />
          </mxGeometry>
        </mxCell>
        <mxCell id="Ce3TjOt75USyeO9Dkmf0-18" value="professors" style="whiteSpace=wrap;html=1;align=center;strokeColor=#FFFFFF;fillColor=none;fontColor=#FFFFFF;" parent="1" vertex="1">
          <mxGeometry x="470" y="257.5" width="100" height="40" as="geometry" />
        </mxCell>
        <mxCell id="Ce3TjOt75USyeO9Dkmf0-21" value="professor_email" style="ellipse;whiteSpace=wrap;html=1;align=center;strokeColor=#FFFFFF;fillColor=none;fontColor=#FFFFFF;" parent="1" vertex="1">
          <mxGeometry x="650" y="310" width="100" height="40" as="geometry" />
        </mxCell>
        <mxCell id="Ce3TjOt75USyeO9Dkmf0-24" value="" style="endArrow=none;dashed=1;html=1;dashPattern=1 3;strokeWidth=2;rounded=0;strokeColor=#FFFFFF;entryX=-0.015;entryY=0.632;entryDx=0;entryDy=0;entryPerimeter=0;exitX=1.017;exitY=0.387;exitDx=0;exitDy=0;exitPerimeter=0;" parent="1" source="Ce3TjOt75USyeO9Dkmf0-18" target="Ce3TjOt75USyeO9Dkmf0-133" edge="1">
          <mxGeometry width="50" height="50" relative="1" as="geometry">
            <mxPoint x="580" y="255" as="sourcePoint" />
            <mxPoint x="640" y="235" as="targetPoint" />
          </mxGeometry>
        </mxCell>
        <mxCell id="Ce3TjOt75USyeO9Dkmf0-25" style="edgeStyle=orthogonalEdgeStyle;rounded=0;orthogonalLoop=1;jettySize=auto;html=1;entryX=0.011;entryY=0.653;entryDx=0;entryDy=0;entryPerimeter=0;strokeColor=none;" parent="1" edge="1">
          <mxGeometry relative="1" as="geometry">
            <mxPoint x="700" y="205.0000000000001" as="sourcePoint" />
            <mxPoint x="651.0999999999999" y="231.1199999999999" as="targetPoint" />
          </mxGeometry>
        </mxCell>
        <mxCell id="Ce3TjOt75USyeO9Dkmf0-27" value="" style="endArrow=none;dashed=1;html=1;dashPattern=1 3;strokeWidth=2;rounded=0;strokeColor=#FFFFFF;exitX=1;exitY=0.5;exitDx=0;exitDy=0;entryX=0.055;entryY=0.306;entryDx=0;entryDy=0;entryPerimeter=0;" parent="1" source="Ce3TjOt75USyeO9Dkmf0-18" target="Ce3TjOt75USyeO9Dkmf0-21" edge="1">
          <mxGeometry width="50" height="50" relative="1" as="geometry">
            <mxPoint x="580" y="295" as="sourcePoint" />
            <mxPoint x="660" y="322.5" as="targetPoint" />
          </mxGeometry>
        </mxCell>
        <mxCell id="Ce3TjOt75USyeO9Dkmf0-29" value="courses" style="whiteSpace=wrap;html=1;align=center;strokeColor=#FFFFFF;fillColor=none;fontColor=#FFFFFF;" parent="1" vertex="1">
          <mxGeometry x="130" y="255" width="100" height="40" as="geometry" />
        </mxCell>
        <mxCell id="Ce3TjOt75USyeO9Dkmf0-31" value="course_name" style="ellipse;whiteSpace=wrap;html=1;align=center;strokeColor=#FFFFFF;fillColor=none;fontColor=#FFFFFF;" parent="1" vertex="1">
          <mxGeometry x="-40" y="340" width="100" height="40" as="geometry" />
        </mxCell>
        <mxCell id="Ce3TjOt75USyeO9Dkmf0-32" value="" style="endArrow=none;dashed=1;html=1;dashPattern=1 3;strokeWidth=2;rounded=0;strokeColor=#FFFFFF;exitX=1;exitY=0.5;exitDx=0;exitDy=0;entryX=0;entryY=0.5;entryDx=0;entryDy=0;" parent="1" source="Ce3TjOt75USyeO9Dkmf0-31" target="Ce3TjOt75USyeO9Dkmf0-29" edge="1">
          <mxGeometry width="50" height="50" relative="1" as="geometry">
            <mxPoint x="70" y="277.5" as="sourcePoint" />
            <mxPoint x="130" y="257.5" as="targetPoint" />
          </mxGeometry>
        </mxCell>
        <mxCell id="Ce3TjOt75USyeO9Dkmf0-33" style="edgeStyle=orthogonalEdgeStyle;rounded=0;orthogonalLoop=1;jettySize=auto;html=1;entryX=0.011;entryY=0.653;entryDx=0;entryDy=0;entryPerimeter=0;strokeColor=none;" parent="1" edge="1">
          <mxGeometry relative="1" as="geometry">
            <mxPoint x="-20" y="222.5" as="sourcePoint" />
            <mxPoint x="-68.89999999999986" y="248.62" as="targetPoint" />
          </mxGeometry>
        </mxCell>
        <mxCell id="Ce3TjOt75USyeO9Dkmf0-34" value="" style="endArrow=none;dashed=1;html=1;dashPattern=1 3;strokeWidth=2;rounded=0;strokeColor=#FFFFFF;exitX=1;exitY=0.5;exitDx=0;exitDy=0;entryX=0;entryY=0.5;entryDx=0;entryDy=0;" parent="1" source="Ce3TjOt75USyeO9Dkmf0-121" target="Ce3TjOt75USyeO9Dkmf0-29" edge="1">
          <mxGeometry width="50" height="50" relative="1" as="geometry">
            <mxPoint x="60" y="242.5" as="sourcePoint" />
            <mxPoint x="120" y="272.5" as="targetPoint" />
          </mxGeometry>
        </mxCell>
        <mxCell id="Ce3TjOt75USyeO9Dkmf0-39" style="edgeStyle=orthogonalEdgeStyle;rounded=0;orthogonalLoop=1;jettySize=auto;html=1;entryX=0.011;entryY=0.653;entryDx=0;entryDy=0;entryPerimeter=0;" parent="1" edge="1">
          <mxGeometry relative="1" as="geometry">
            <mxPoint x="379.9999999999998" y="870" as="sourcePoint" />
            <mxPoint x="331.0999999999997" y="896.1199999999999" as="targetPoint" />
          </mxGeometry>
        </mxCell>
        <mxCell id="Ce3TjOt75USyeO9Dkmf0-47" value="students" style="whiteSpace=wrap;html=1;align=center;strokeColor=#FFFFFF;fillColor=none;fontColor=#FFFFFF;" parent="1" vertex="1">
          <mxGeometry x="300" y="710" width="100" height="40" as="geometry" />
        </mxCell>
        <mxCell id="Ce3TjOt75USyeO9Dkmf0-48" value="&lt;u&gt;student_id&lt;/u&gt;" style="ellipse;whiteSpace=wrap;html=1;align=center;strokeColor=#FFFFFF;fillColor=none;fontColor=#FFFFFF;" parent="1" vertex="1">
          <mxGeometry x="200" y="800" width="100" height="40" as="geometry" />
        </mxCell>
        <mxCell id="Ce3TjOt75USyeO9Dkmf0-49" value="student_name" style="ellipse;whiteSpace=wrap;html=1;align=center;strokeColor=#FFFFFF;fillColor=none;fontColor=#FFFFFF;" parent="1" vertex="1">
          <mxGeometry x="400" y="800" width="100" height="40" as="geometry" />
        </mxCell>
        <mxCell id="Ce3TjOt75USyeO9Dkmf0-50" value="" style="endArrow=none;dashed=1;html=1;dashPattern=1 3;strokeWidth=2;rounded=0;strokeColor=#FFFFFF;entryX=0.5;entryY=1;entryDx=0;entryDy=0;exitX=0.555;exitY=-0.062;exitDx=0;exitDy=0;exitPerimeter=0;" parent="1" source="Ce3TjOt75USyeO9Dkmf0-48" target="Ce3TjOt75USyeO9Dkmf0-47" edge="1">
          <mxGeometry width="50" height="50" relative="1" as="geometry">
            <mxPoint x="275" y="790" as="sourcePoint" />
            <mxPoint x="335" y="770" as="targetPoint" />
          </mxGeometry>
        </mxCell>
        <mxCell id="Ce3TjOt75USyeO9Dkmf0-51" style="edgeStyle=orthogonalEdgeStyle;rounded=0;orthogonalLoop=1;jettySize=auto;html=1;entryX=0.011;entryY=0.653;entryDx=0;entryDy=0;entryPerimeter=0;strokeColor=none;" parent="1" source="Ce3TjOt75USyeO9Dkmf0-48" target="Ce3TjOt75USyeO9Dkmf0-48" edge="1">
          <mxGeometry relative="1" as="geometry" />
        </mxCell>
        <mxCell id="Ce3TjOt75USyeO9Dkmf0-52" value="" style="endArrow=none;dashed=1;html=1;dashPattern=1 3;strokeWidth=2;rounded=0;strokeColor=#FFFFFF;entryX=0.5;entryY=0;entryDx=0;entryDy=0;exitX=0.5;exitY=1;exitDx=0;exitDy=0;" parent="1" source="Ce3TjOt75USyeO9Dkmf0-47" target="Ce3TjOt75USyeO9Dkmf0-49" edge="1">
          <mxGeometry width="50" height="50" relative="1" as="geometry">
            <mxPoint x="340" y="750" as="sourcePoint" />
            <mxPoint x="400" y="780" as="targetPoint" />
          </mxGeometry>
        </mxCell>
        <mxCell id="Ce3TjOt75USyeO9Dkmf0-53" value="reading" style="whiteSpace=wrap;html=1;align=center;strokeColor=#FFFFFF;fillColor=none;fontColor=#FFFFFF;" parent="1" vertex="1">
          <mxGeometry x="-50" y="480" width="100" height="40" as="geometry" />
        </mxCell>
        <mxCell id="Ce3TjOt75USyeO9Dkmf0-54" value="&lt;u&gt;reading_id&lt;/u&gt;" style="ellipse;whiteSpace=wrap;html=1;align=center;strokeColor=#FFFFFF;fillColor=none;fontColor=#FFFFFF;" parent="1" vertex="1">
          <mxGeometry x="-210" y="415" width="100" height="40" as="geometry" />
        </mxCell>
        <mxCell id="Ce3TjOt75USyeO9Dkmf0-57" value="" style="endArrow=none;dashed=1;html=1;dashPattern=1 3;strokeWidth=2;rounded=0;strokeColor=#FFFFFF;entryX=-0.026;entryY=0.51;entryDx=0;entryDy=0;entryPerimeter=0;exitX=1.002;exitY=0.334;exitDx=0;exitDy=0;exitPerimeter=0;" parent="1" source="Ce3TjOt75USyeO9Dkmf0-54" target="Ce3TjOt75USyeO9Dkmf0-53" edge="1">
          <mxGeometry width="50" height="50" relative="1" as="geometry">
            <mxPoint x="-100" y="499.77000000000004" as="sourcePoint" />
            <mxPoint x="-60" y="499.77000000000004" as="targetPoint" />
          </mxGeometry>
        </mxCell>
        <mxCell id="Ce3TjOt75USyeO9Dkmf0-58" value="&lt;font color=&quot;#ffffff&quot;&gt;N&lt;/font&gt;" style="text;strokeColor=none;align=center;fillColor=none;html=1;verticalAlign=middle;whiteSpace=wrap;rounded=0;" parent="1" vertex="1">
          <mxGeometry x="450" y="242.5" width="30" height="20" as="geometry" />
        </mxCell>
        <mxCell id="Ce3TjOt75USyeO9Dkmf0-66" value="" style="endArrow=none;dashed=1;html=1;dashPattern=1 3;strokeWidth=2;rounded=0;strokeColor=#FFFFFF;entryX=1;entryY=0.75;entryDx=0;entryDy=0;" parent="1" target="Ce3TjOt75USyeO9Dkmf0-95" edge="1">
          <mxGeometry width="50" height="50" relative="1" as="geometry">
            <mxPoint x="350" y="660" as="sourcePoint" />
            <mxPoint x="350" y="700" as="targetPoint" />
          </mxGeometry>
        </mxCell>
        <mxCell id="Ce3TjOt75USyeO9Dkmf0-68" value="assigns" style="shape=rhombus;perimeter=rhombusPerimeter;whiteSpace=wrap;html=1;align=center;strokeColor=#FFFFFF;fillColor=none;fontColor=#FFFFFF;" parent="1" vertex="1">
          <mxGeometry x="460" y="380" width="120" height="60" as="geometry" />
        </mxCell>
        <mxCell id="Ce3TjOt75USyeO9Dkmf0-70" value="" style="endArrow=none;dashed=1;html=1;dashPattern=1 3;strokeWidth=2;rounded=0;strokeColor=#FFFFFF;entryX=0.504;entryY=-0.08;entryDx=0;entryDy=0;entryPerimeter=0;" parent="1" target="Ce3TjOt75USyeO9Dkmf0-68" edge="1">
          <mxGeometry width="50" height="50" relative="1" as="geometry">
            <mxPoint x="520" y="300" as="sourcePoint" />
            <mxPoint x="520" y="340" as="targetPoint" />
          </mxGeometry>
        </mxCell>
        <mxCell id="Ce3TjOt75USyeO9Dkmf0-72" value="&lt;font color=&quot;#ffffff&quot;&gt;M&lt;/font&gt;" style="text;strokeColor=none;align=center;fillColor=none;html=1;verticalAlign=middle;whiteSpace=wrap;rounded=0;" parent="1" vertex="1">
          <mxGeometry x="390" y="455" width="30" height="15" as="geometry" />
        </mxCell>
        <mxCell id="Ce3TjOt75USyeO9Dkmf0-74" value="&lt;font color=&quot;#ffffff&quot;&gt;M&lt;/font&gt;" style="text;strokeColor=none;align=center;fillColor=none;html=1;verticalAlign=middle;whiteSpace=wrap;rounded=0;" parent="1" vertex="1">
          <mxGeometry x="225" y="252.5" width="30" height="15" as="geometry" />
        </mxCell>
        <mxCell id="Ce3TjOt75USyeO9Dkmf0-76" value="teaches" style="shape=rhombus;perimeter=rhombusPerimeter;whiteSpace=wrap;html=1;align=center;strokeColor=#FFFFFF;fillColor=none;fontColor=#FFFFFF;" parent="1" vertex="1">
          <mxGeometry x="305" y="200" width="120" height="60" as="geometry" />
        </mxCell>
        <mxCell id="Ce3TjOt75USyeO9Dkmf0-78" value="" style="endArrow=none;dashed=1;html=1;dashPattern=1 3;strokeWidth=2;rounded=0;strokeColor=#FFFFFF;entryX=1.025;entryY=0.499;entryDx=0;entryDy=0;entryPerimeter=0;" parent="1" target="Ce3TjOt75USyeO9Dkmf0-76" edge="1">
          <mxGeometry width="50" height="50" relative="1" as="geometry">
            <mxPoint x="460" y="278" as="sourcePoint" />
            <mxPoint x="420" y="278" as="targetPoint" />
          </mxGeometry>
        </mxCell>
        <mxCell id="Ce3TjOt75USyeO9Dkmf0-79" value="" style="endArrow=none;dashed=1;html=1;dashPattern=1 3;strokeWidth=2;rounded=0;strokeColor=#FFFFFF;entryX=1.025;entryY=0.499;entryDx=0;entryDy=0;entryPerimeter=0;exitX=0;exitY=0.5;exitDx=0;exitDy=0;" parent="1" source="Ce3TjOt75USyeO9Dkmf0-76" edge="1">
          <mxGeometry width="50" height="50" relative="1" as="geometry">
            <mxPoint x="277" y="278" as="sourcePoint" />
            <mxPoint x="230" y="277" as="targetPoint" />
          </mxGeometry>
        </mxCell>
        <mxCell id="Ce3TjOt75USyeO9Dkmf0-86" value="" style="endArrow=none;dashed=1;html=1;dashPattern=1 3;strokeWidth=2;rounded=0;strokeColor=#FFFFFF;entryX=0.5;entryY=0;entryDx=0;entryDy=0;exitX=0.487;exitY=1.011;exitDx=0;exitDy=0;exitPerimeter=0;" parent="1" source="Ce3TjOt75USyeO9Dkmf0-29" target="Ce3TjOt75USyeO9Dkmf0-115" edge="1">
          <mxGeometry width="50" height="50" relative="1" as="geometry">
            <mxPoint x="180" y="310" as="sourcePoint" />
            <mxPoint x="220" y="370" as="targetPoint" />
          </mxGeometry>
        </mxCell>
        <mxCell id="Ce3TjOt75USyeO9Dkmf0-87" value="" style="endArrow=none;dashed=1;html=1;dashPattern=1 3;strokeWidth=2;rounded=0;strokeColor=#FFFFFF;entryX=1;entryY=0;entryDx=0;entryDy=0;" parent="1" source="Ce3TjOt75USyeO9Dkmf0-68" target="sWjn2z7VL8cJMrQNKD__-182" edge="1">
          <mxGeometry width="50" height="50" relative="1" as="geometry">
            <mxPoint x="445" y="422.5" as="sourcePoint" />
            <mxPoint x="410" y="480" as="targetPoint" />
          </mxGeometry>
        </mxCell>
        <mxCell id="Ce3TjOt75USyeO9Dkmf0-89" value="&lt;font color=&quot;#ffffff&quot;&gt;M&lt;/font&gt;" style="text;strokeColor=none;align=center;fillColor=none;html=1;verticalAlign=middle;whiteSpace=wrap;rounded=0;" parent="1" vertex="1">
          <mxGeometry x="290" y="455" width="30" height="15" as="geometry" />
        </mxCell>
        <mxCell id="Ce3TjOt75USyeO9Dkmf0-91" value="&lt;font color=&quot;#ffffff&quot;&gt;1&lt;/font&gt;" style="text;strokeColor=none;align=center;fillColor=none;html=1;verticalAlign=middle;whiteSpace=wrap;rounded=0;" parent="1" vertex="1">
          <mxGeometry x="150" y="295" width="30" height="20" as="geometry" />
        </mxCell>
        <mxCell id="Ce3TjOt75USyeO9Dkmf0-92" value="completes" style="shape=rhombus;perimeter=rhombusPerimeter;whiteSpace=wrap;html=1;align=center;strokeColor=#FFFFFF;fillColor=none;fontColor=#FFFFFF;" parent="1" vertex="1">
          <mxGeometry x="290" y="590" width="120" height="60" as="geometry" />
        </mxCell>
        <mxCell id="Ce3TjOt75USyeO9Dkmf0-93" value="" style="endArrow=none;dashed=1;html=1;dashPattern=1 3;strokeWidth=2;rounded=0;strokeColor=#FFFFFF;" parent="1" edge="1">
          <mxGeometry width="50" height="50" relative="1" as="geometry">
            <mxPoint x="349.73" y="530" as="sourcePoint" />
            <mxPoint x="350" y="580" as="targetPoint" />
          </mxGeometry>
        </mxCell>
        <mxCell id="Ce3TjOt75USyeO9Dkmf0-94" value="&lt;font color=&quot;#ffffff&quot;&gt;M&lt;/font&gt;" style="text;strokeColor=none;align=center;fillColor=none;html=1;verticalAlign=middle;whiteSpace=wrap;rounded=0;" parent="1" vertex="1">
          <mxGeometry x="320" y="520" width="30" height="15" as="geometry" />
        </mxCell>
        <mxCell id="Ce3TjOt75USyeO9Dkmf0-95" value="&lt;font color=&quot;#ffffff&quot;&gt;M&lt;/font&gt;" style="text;strokeColor=none;align=center;fillColor=none;html=1;verticalAlign=middle;whiteSpace=wrap;rounded=0;" parent="1" vertex="1">
          <mxGeometry x="320" y="690" width="30" height="20" as="geometry" />
        </mxCell>
        <mxCell id="Ce3TjOt75USyeO9Dkmf0-96" value="has" style="shape=rhombus;perimeter=rhombusPerimeter;whiteSpace=wrap;html=1;align=center;strokeColor=#FFFFFF;fillColor=none;fontColor=#FFFFFF;" parent="1" vertex="1">
          <mxGeometry x="115" y="470" width="120" height="60" as="geometry" />
        </mxCell>
        <mxCell id="Ce3TjOt75USyeO9Dkmf0-97" value="" style="endArrow=none;dashed=1;html=1;dashPattern=1 3;strokeWidth=2;rounded=0;strokeColor=#FFFFFF;entryX=0;entryY=0.5;entryDx=0;entryDy=0;" parent="1" target="Ce3TjOt75USyeO9Dkmf0-164" edge="1">
          <mxGeometry width="50" height="50" relative="1" as="geometry">
            <mxPoint x="240" y="500" as="sourcePoint" />
            <mxPoint x="295" y="499.6200000000001" as="targetPoint" />
          </mxGeometry>
        </mxCell>
        <mxCell id="Ce3TjOt75USyeO9Dkmf0-98" value="&lt;font color=&quot;#ffffff&quot;&gt;M&lt;/font&gt;" style="text;strokeColor=none;align=center;fillColor=none;html=1;verticalAlign=middle;whiteSpace=wrap;rounded=0;" parent="1" vertex="1">
          <mxGeometry x="530" y="670" width="30" height="15" as="geometry" />
        </mxCell>
        <mxCell id="Ce3TjOt75USyeO9Dkmf0-99" value="" style="endArrow=none;dashed=1;html=1;dashPattern=1 3;strokeWidth=2;rounded=0;strokeColor=#FFFFFF;" parent="1" edge="1">
          <mxGeometry width="50" height="50" relative="1" as="geometry">
            <mxPoint x="60" y="500.19" as="sourcePoint" />
            <mxPoint x="115" y="499.8100000000001" as="targetPoint" />
          </mxGeometry>
        </mxCell>
        <mxCell id="Ce3TjOt75USyeO9Dkmf0-100" value="&lt;font color=&quot;#ffffff&quot;&gt;N&lt;/font&gt;" style="text;strokeColor=none;align=center;fillColor=none;html=1;verticalAlign=middle;whiteSpace=wrap;rounded=0;" parent="1" vertex="1">
          <mxGeometry x="50" y="480" width="30" height="15" as="geometry" />
        </mxCell>
        <mxCell id="Ce3TjOt75USyeO9Dkmf0-101" value="&lt;font color=&quot;#ffffff&quot;&gt;1&lt;/font&gt;" style="text;strokeColor=none;align=center;fillColor=none;html=1;verticalAlign=middle;whiteSpace=wrap;rounded=0;" parent="1" vertex="1">
          <mxGeometry x="520" y="300" width="30" height="15" as="geometry" />
        </mxCell>
        <mxCell id="Ce3TjOt75USyeO9Dkmf0-104" value="classroom" style="whiteSpace=wrap;html=1;align=center;strokeColor=#FFFFFF;fillColor=none;fontColor=#FFFFFF;" parent="1" vertex="1">
          <mxGeometry x="130" y="-20" width="100" height="40" as="geometry" />
        </mxCell>
        <mxCell id="Ce3TjOt75USyeO9Dkmf0-105" value="taught in" style="shape=rhombus;perimeter=rhombusPerimeter;whiteSpace=wrap;html=1;align=center;strokeColor=#FFFFFF;fillColor=none;fontColor=#FFFFFF;" parent="1" vertex="1">
          <mxGeometry x="120" y="60" width="120" height="60" as="geometry" />
        </mxCell>
        <mxCell id="Ce3TjOt75USyeO9Dkmf0-107" value="" style="endArrow=none;dashed=1;html=1;dashPattern=1 3;strokeWidth=2;rounded=0;strokeColor=#FFFFFF;entryX=0.5;entryY=0;entryDx=0;entryDy=0;exitX=0.5;exitY=1;exitDx=0;exitDy=0;" parent="1" source="Ce3TjOt75USyeO9Dkmf0-104" target="Ce3TjOt75USyeO9Dkmf0-105" edge="1">
          <mxGeometry width="50" height="50" relative="1" as="geometry">
            <mxPoint x="175" y="90" as="sourcePoint" />
            <mxPoint x="174.8" y="131" as="targetPoint" />
          </mxGeometry>
        </mxCell>
        <mxCell id="Ce3TjOt75USyeO9Dkmf0-108" value="" style="endArrow=none;dashed=1;html=1;dashPattern=1 3;strokeWidth=2;rounded=0;strokeColor=#FFFFFF;entryX=0.5;entryY=0;entryDx=0;entryDy=0;" parent="1" source="Ce3TjOt75USyeO9Dkmf0-109" target="Ce3TjOt75USyeO9Dkmf0-18" edge="1">
          <mxGeometry width="50" height="50" relative="1" as="geometry">
            <mxPoint x="410" y="190" as="sourcePoint" />
            <mxPoint x="520" y="250" as="targetPoint" />
          </mxGeometry>
        </mxCell>
        <mxCell id="Ce3TjOt75USyeO9Dkmf0-109" value="teaches in" style="shape=rhombus;perimeter=rhombusPerimeter;whiteSpace=wrap;html=1;align=center;strokeColor=#FFFFFF;fillColor=none;fontColor=#FFFFFF;" parent="1" vertex="1">
          <mxGeometry x="460" y="45" width="120" height="60" as="geometry" />
        </mxCell>
        <mxCell id="Ce3TjOt75USyeO9Dkmf0-110" value="" style="endArrow=none;dashed=1;html=1;dashPattern=1 3;strokeWidth=2;rounded=0;strokeColor=#FFFFFF;entryX=0.23;entryY=0.273;entryDx=0;entryDy=0;entryPerimeter=0;exitX=1.001;exitY=0.474;exitDx=0;exitDy=0;exitPerimeter=0;" parent="1" source="Ce3TjOt75USyeO9Dkmf0-104" target="Ce3TjOt75USyeO9Dkmf0-109" edge="1">
          <mxGeometry width="50" height="50" relative="1" as="geometry">
            <mxPoint x="225" y="70" as="sourcePoint" />
            <mxPoint x="359" y="161" as="targetPoint" />
          </mxGeometry>
        </mxCell>
        <mxCell id="Ce3TjOt75USyeO9Dkmf0-111" value="&lt;font color=&quot;#ffffff&quot;&gt;`1&lt;/font&gt;" style="text;strokeColor=none;align=center;fillColor=none;html=1;verticalAlign=middle;whiteSpace=wrap;rounded=0;" parent="1" vertex="1">
          <mxGeometry x="510" y="235" width="30" height="15" as="geometry" />
        </mxCell>
        <mxCell id="Ce3TjOt75USyeO9Dkmf0-112" value="&lt;font color=&quot;#ffffff&quot;&gt;N&lt;/font&gt;" style="text;strokeColor=none;align=center;fillColor=none;html=1;verticalAlign=middle;whiteSpace=wrap;rounded=0;" parent="1" vertex="1">
          <mxGeometry x="180" y="145" width="30" height="15" as="geometry" />
        </mxCell>
        <mxCell id="Ce3TjOt75USyeO9Dkmf0-115" value="have" style="shape=rhombus;perimeter=rhombusPerimeter;whiteSpace=wrap;html=1;align=center;strokeColor=#FFFFFF;fillColor=none;fontColor=#FFFFFF;" parent="1" vertex="1">
          <mxGeometry x="120" y="370" width="120" height="60" as="geometry" />
        </mxCell>
        <mxCell id="Ce3TjOt75USyeO9Dkmf0-116" value="" style="endArrow=none;dashed=1;html=1;dashPattern=1 3;strokeWidth=2;rounded=0;strokeColor=#FFFFFF;entryX=0.75;entryY=0.833;entryDx=0;entryDy=0;entryPerimeter=0;exitX=0;exitY=0;exitDx=0;exitDy=0;" parent="1" source="sWjn2z7VL8cJMrQNKD__-182" target="Ce3TjOt75USyeO9Dkmf0-115" edge="1">
          <mxGeometry width="50" height="50" relative="1" as="geometry">
            <mxPoint x="506" y="438" as="sourcePoint" />
            <mxPoint x="413" y="505" as="targetPoint" />
          </mxGeometry>
        </mxCell>
        <mxCell id="Ce3TjOt75USyeO9Dkmf0-118" value="" style="endArrow=none;dashed=1;html=1;dashPattern=1 3;strokeWidth=2;rounded=0;strokeColor=#FFFFFF;entryX=1;entryY=0.5;entryDx=0;entryDy=0;exitX=0;exitY=0.5;exitDx=0;exitDy=0;" parent="1" source="Ce3TjOt75USyeO9Dkmf0-104" edge="1">
          <mxGeometry width="50" height="50" relative="1" as="geometry">
            <mxPoint x="110" y="70" as="sourcePoint" />
            <mxPoint x="40" as="targetPoint" />
          </mxGeometry>
        </mxCell>
        <mxCell id="Ce3TjOt75USyeO9Dkmf0-120" value="" style="group" parent="1" vertex="1" connectable="0">
          <mxGeometry x="-50" y="245" width="100" height="60" as="geometry" />
        </mxCell>
        <mxCell id="Ce3TjOt75USyeO9Dkmf0-121" value="&lt;u&gt;course_id&lt;/u&gt;" style="ellipse;whiteSpace=wrap;html=1;align=center;strokeColor=#FFFFFF;fillColor=none;fontColor=#FFFFFF;" parent="Ce3TjOt75USyeO9Dkmf0-120" vertex="1">
          <mxGeometry width="100" height="60.000000000000014" as="geometry" />
        </mxCell>
        <mxCell id="Ce3TjOt75USyeO9Dkmf0-126" value="" style="group" parent="1" vertex="1" connectable="0">
          <mxGeometry x="720" y="480" width="100" height="50" as="geometry" />
        </mxCell>
        <mxCell id="Ce3TjOt75USyeO9Dkmf0-127" value="&lt;span style=&quot;border-bottom: 1px dotted&quot;&gt;course_code&lt;/span&gt;" style="ellipse;whiteSpace=wrap;html=1;align=center;strokeColor=#FFFFFF;fillColor=none;fontColor=#FFFFFF;" parent="Ce3TjOt75USyeO9Dkmf0-126" vertex="1">
          <mxGeometry width="100" height="50" as="geometry" />
        </mxCell>
        <mxCell id="Ce3TjOt75USyeO9Dkmf0-128" value="" style="endArrow=none;html=1;fontColor=#FFFFFF;strokeColor=#FFFFFF;dashed=1;dashPattern=1 1;" parent="Ce3TjOt75USyeO9Dkmf0-126" edge="1">
          <mxGeometry width="50" height="50" relative="1" as="geometry">
            <mxPoint x="20" y="38.75" as="sourcePoint" />
            <mxPoint x="80" y="38.75" as="targetPoint" />
          </mxGeometry>
        </mxCell>
        <mxCell id="Ce3TjOt75USyeO9Dkmf0-132" value="" style="group" parent="1" vertex="1" connectable="0">
          <mxGeometry x="650" y="210" width="100" height="40" as="geometry" />
        </mxCell>
        <mxCell id="Ce3TjOt75USyeO9Dkmf0-133" value="professor_id" style="ellipse;whiteSpace=wrap;html=1;align=center;strokeColor=#FFFFFF;fillColor=none;fontColor=#FFFFFF;" parent="Ce3TjOt75USyeO9Dkmf0-132" vertex="1">
          <mxGeometry width="100" height="40" as="geometry" />
        </mxCell>
        <mxCell id="Ce3TjOt75USyeO9Dkmf0-203" value="" style="endArrow=none;html=1;rounded=0;strokeColor=#FFFFFF;" parent="Ce3TjOt75USyeO9Dkmf0-132" edge="1">
          <mxGeometry width="50" height="50" relative="1" as="geometry">
            <mxPoint x="85" y="30" as="sourcePoint" />
            <mxPoint x="15" y="30" as="targetPoint" />
          </mxGeometry>
        </mxCell>
        <mxCell id="Ce3TjOt75USyeO9Dkmf0-136" value="&lt;font color=&quot;#ffffff&quot;&gt;M&lt;/font&gt;" style="text;strokeColor=none;align=center;fillColor=none;html=1;verticalAlign=middle;whiteSpace=wrap;rounded=0;" parent="1" vertex="1">
          <mxGeometry x="180" y="297.5" width="30" height="15" as="geometry" />
        </mxCell>
        <mxCell id="Ce3TjOt75USyeO9Dkmf0-137" value="section" style="whiteSpace=wrap;html=1;align=center;strokeColor=#FFFFFF;fillColor=none;fontColor=#FFFFFF;" parent="1" vertex="1">
          <mxGeometry x="130" y="160" width="100" height="40" as="geometry" />
        </mxCell>
        <mxCell id="Ce3TjOt75USyeO9Dkmf0-138" value="" style="endArrow=none;dashed=1;html=1;dashPattern=1 3;strokeWidth=2;rounded=0;strokeColor=#FFFFFF;entryX=0.5;entryY=1;entryDx=0;entryDy=0;exitX=0.5;exitY=0;exitDx=0;exitDy=0;" parent="1" source="Ce3TjOt75USyeO9Dkmf0-29" target="Ce3TjOt75USyeO9Dkmf0-137" edge="1">
          <mxGeometry width="50" height="50" relative="1" as="geometry">
            <mxPoint x="125" y="273.5" as="sourcePoint" />
            <mxPoint x="78" y="272.5" as="targetPoint" />
          </mxGeometry>
        </mxCell>
        <mxCell id="Ce3TjOt75USyeO9Dkmf0-140" value="&lt;font color=&quot;#ffffff&quot;&gt;1&lt;/font&gt;" style="text;strokeColor=none;align=center;fillColor=none;html=1;verticalAlign=middle;whiteSpace=wrap;rounded=0;" parent="1" vertex="1">
          <mxGeometry x="100" y="252.5" width="30" height="20" as="geometry" />
        </mxCell>
        <mxCell id="Ce3TjOt75USyeO9Dkmf0-141" value="&lt;font color=&quot;#ffffff&quot;&gt;M&lt;/font&gt;" style="text;strokeColor=none;align=center;fillColor=none;html=1;verticalAlign=middle;whiteSpace=wrap;rounded=0;" parent="1" vertex="1">
          <mxGeometry x="180" y="240" width="30" height="15" as="geometry" />
        </mxCell>
        <mxCell id="Ce3TjOt75USyeO9Dkmf0-145" value="section_name" style="ellipse;whiteSpace=wrap;html=1;align=center;strokeColor=#FFFFFF;fillColor=none;fontColor=#FFFFFF;" parent="1" vertex="1">
          <mxGeometry x="-60" y="180" width="100" height="40" as="geometry" />
        </mxCell>
        <mxCell id="Ce3TjOt75USyeO9Dkmf0-146" value="&lt;u&gt;section_id&lt;/u&gt;" style="ellipse;whiteSpace=wrap;html=1;align=center;strokeColor=#FFFFFF;fillColor=none;fontColor=#FFFFFF;" parent="1" vertex="1">
          <mxGeometry x="-60" y="105" width="100" height="40" as="geometry" />
        </mxCell>
        <mxCell id="Ce3TjOt75USyeO9Dkmf0-149" value="" style="endArrow=none;dashed=1;html=1;dashPattern=1 3;strokeWidth=2;rounded=0;entryX=1;entryY=0.5;entryDx=0;entryDy=0;exitX=0;exitY=0.5;exitDx=0;exitDy=0;strokeColor=#FFFFFF;" parent="1" source="Ce3TjOt75USyeO9Dkmf0-76" target="Ce3TjOt75USyeO9Dkmf0-137" edge="1">
          <mxGeometry width="50" height="50" relative="1" as="geometry">
            <mxPoint x="270" y="250" as="sourcePoint" />
            <mxPoint x="320" y="200" as="targetPoint" />
          </mxGeometry>
        </mxCell>
        <mxCell id="Ce3TjOt75USyeO9Dkmf0-150" value="" style="endArrow=none;dashed=1;html=1;dashPattern=1 3;strokeWidth=2;rounded=0;strokeColor=#FFFFFF;entryX=0.5;entryY=0;entryDx=0;entryDy=0;exitX=0.5;exitY=1;exitDx=0;exitDy=0;" parent="1" edge="1">
          <mxGeometry width="50" height="50" relative="1" as="geometry">
            <mxPoint x="174.68" y="120" as="sourcePoint" />
            <mxPoint x="174.68" y="160" as="targetPoint" />
          </mxGeometry>
        </mxCell>
        <mxCell id="Ce3TjOt75USyeO9Dkmf0-152" value="" style="endArrow=none;dashed=1;html=1;dashPattern=1 3;strokeWidth=2;rounded=0;exitX=1;exitY=0.5;exitDx=0;exitDy=0;entryX=0;entryY=0.5;entryDx=0;entryDy=0;strokeColor=#FFFFFF;" parent="1" source="Ce3TjOt75USyeO9Dkmf0-146" target="Ce3TjOt75USyeO9Dkmf0-137" edge="1">
          <mxGeometry width="50" height="50" relative="1" as="geometry">
            <mxPoint x="70" y="250" as="sourcePoint" />
            <mxPoint x="120" y="200" as="targetPoint" />
          </mxGeometry>
        </mxCell>
        <mxCell id="Ce3TjOt75USyeO9Dkmf0-153" value="" style="endArrow=none;dashed=1;html=1;dashPattern=1 3;strokeWidth=2;rounded=0;exitX=1.012;exitY=0.38;exitDx=0;exitDy=0;entryX=0;entryY=0.5;entryDx=0;entryDy=0;strokeColor=#FFFFFF;exitPerimeter=0;" parent="1" source="Ce3TjOt75USyeO9Dkmf0-145" target="Ce3TjOt75USyeO9Dkmf0-137" edge="1">
          <mxGeometry width="50" height="50" relative="1" as="geometry">
            <mxPoint x="50" y="135" as="sourcePoint" />
            <mxPoint x="140" y="190" as="targetPoint" />
          </mxGeometry>
        </mxCell>
        <mxCell id="Ce3TjOt75USyeO9Dkmf0-154" value="&lt;font color=&quot;#ffffff&quot;&gt;M&lt;/font&gt;" style="text;strokeColor=none;align=center;fillColor=none;html=1;verticalAlign=middle;whiteSpace=wrap;rounded=0;" parent="1" vertex="1">
          <mxGeometry x="180" y="20" width="30" height="20" as="geometry" />
        </mxCell>
        <mxCell id="Ce3TjOt75USyeO9Dkmf0-155" style="edgeStyle=orthogonalEdgeStyle;rounded=0;orthogonalLoop=1;jettySize=auto;html=1;exitX=0.5;exitY=1;exitDx=0;exitDy=0;entryX=0.75;entryY=1;entryDx=0;entryDy=0;" parent="1" source="Ce3TjOt75USyeO9Dkmf0-111" target="Ce3TjOt75USyeO9Dkmf0-111" edge="1">
          <mxGeometry relative="1" as="geometry" />
        </mxCell>
        <mxCell id="Ce3TjOt75USyeO9Dkmf0-159" value="" style="endArrow=none;dashed=1;html=1;dashPattern=1 3;strokeWidth=2;rounded=0;exitX=0;exitY=0;exitDx=0;exitDy=0;strokeColor=#FFFFFF;entryX=0.505;entryY=0.044;entryDx=0;entryDy=0;entryPerimeter=0;" parent="1" source="Ce3TjOt75USyeO9Dkmf0-136" target="Ce3TjOt75USyeO9Dkmf0-160" edge="1">
          <mxGeometry width="50" height="50" relative="1" as="geometry">
            <mxPoint x="300" y="520" as="sourcePoint" />
            <mxPoint x="250" y="520" as="targetPoint" />
          </mxGeometry>
        </mxCell>
        <mxCell id="Ce3TjOt75USyeO9Dkmf0-160" value="enrolled" style="shape=rhombus;perimeter=rhombusPerimeter;whiteSpace=wrap;html=1;align=center;strokeColor=#FFFFFF;fillColor=none;fontColor=#FFFFFF;" parent="1" vertex="1">
          <mxGeometry x="190" y="530" width="120" height="60" as="geometry" />
        </mxCell>
        <mxCell id="Ce3TjOt75USyeO9Dkmf0-161" value="" style="endArrow=none;dashed=1;html=1;dashPattern=1 3;strokeWidth=2;rounded=0;strokeColor=#FFFFFF;entryX=0.5;entryY=0;entryDx=0;entryDy=0;exitX=0.5;exitY=1;exitDx=0;exitDy=0;" parent="1" source="Ce3TjOt75USyeO9Dkmf0-160" target="Ce3TjOt75USyeO9Dkmf0-47" edge="1">
          <mxGeometry width="50" height="50" relative="1" as="geometry">
            <mxPoint x="360" y="670" as="sourcePoint" />
            <mxPoint x="360" y="715" as="targetPoint" />
          </mxGeometry>
        </mxCell>
        <mxCell id="Ce3TjOt75USyeO9Dkmf0-162" value="&lt;font color=&quot;#ffffff&quot;&gt;N&lt;/font&gt;" style="text;strokeColor=none;align=center;fillColor=none;html=1;verticalAlign=middle;whiteSpace=wrap;rounded=0;" parent="1" vertex="1">
          <mxGeometry x="190" y="322.5" width="30" height="15" as="geometry" />
        </mxCell>
        <mxCell id="Ce3TjOt75USyeO9Dkmf0-163" value="&lt;font color=&quot;#ffffff&quot;&gt;M&lt;/font&gt;" style="text;strokeColor=none;align=center;fillColor=none;html=1;verticalAlign=middle;whiteSpace=wrap;rounded=0;" parent="1" vertex="1">
          <mxGeometry x="230" y="165" width="30" height="15" as="geometry" />
        </mxCell>
        <mxCell id="Ce3TjOt75USyeO9Dkmf0-164" value="assignment_instance" style="whiteSpace=wrap;html=1;align=center;strokeColor=#FFFFFF;fillColor=none;fontColor=#FFFFFF;" parent="1" vertex="1">
          <mxGeometry x="555" y="648" width="138" height="40" as="geometry" />
        </mxCell>
        <mxCell id="Ce3TjOt75USyeO9Dkmf0-166" value="divided" style="shape=rhombus;perimeter=rhombusPerimeter;whiteSpace=wrap;html=1;align=center;strokeColor=#FFFFFF;fillColor=none;fontColor=#FFFFFF;" parent="1" vertex="1">
          <mxGeometry x="410" y="570" width="120" height="60" as="geometry" />
        </mxCell>
        <mxCell id="Ce3TjOt75USyeO9Dkmf0-167" value="" style="endArrow=none;dashed=1;html=1;dashPattern=1 3;strokeWidth=2;rounded=0;strokeColor=#FFFFFF;exitX=1;exitY=0.5;exitDx=0;exitDy=0;entryX=0.25;entryY=0;entryDx=0;entryDy=0;" parent="1" source="Ce3TjOt75USyeO9Dkmf0-166" target="Ce3TjOt75USyeO9Dkmf0-164" edge="1">
          <mxGeometry width="50" height="50" relative="1" as="geometry">
            <mxPoint x="630" y="690" as="sourcePoint" />
            <mxPoint x="730" y="750" as="targetPoint" />
          </mxGeometry>
        </mxCell>
        <mxCell id="Ce3TjOt75USyeO9Dkmf0-168" value="" style="endArrow=none;dashed=1;html=1;dashPattern=1 3;strokeWidth=2;rounded=0;strokeColor=#FFFFFF;exitX=1;exitY=0.5;exitDx=0;exitDy=0;entryX=0.5;entryY=0;entryDx=0;entryDy=0;" parent="1" source="sWjn2z7VL8cJMrQNKD__-182" target="Ce3TjOt75USyeO9Dkmf0-166" edge="1">
          <mxGeometry width="50" height="50" relative="1" as="geometry">
            <mxPoint x="510" y="625" as="sourcePoint" />
            <mxPoint x="555" y="670" as="targetPoint" />
          </mxGeometry>
        </mxCell>
        <mxCell id="Ce3TjOt75USyeO9Dkmf0-169" value="&lt;font color=&quot;#ffffff&quot;&gt;1&lt;/font&gt;" style="text;strokeColor=none;align=center;fillColor=none;html=1;verticalAlign=middle;whiteSpace=wrap;rounded=0;" parent="1" vertex="1">
          <mxGeometry x="390" y="520" width="30" height="15" as="geometry" />
        </mxCell>
        <mxCell id="Ce3TjOt75USyeO9Dkmf0-170" value="&lt;font color=&quot;#ffffff&quot;&gt;N&lt;/font&gt;" style="text;strokeColor=none;align=center;fillColor=none;html=1;verticalAlign=middle;whiteSpace=wrap;rounded=0;" parent="1" vertex="1">
          <mxGeometry x="580" y="630" width="30" height="15" as="geometry" />
        </mxCell>
        <mxCell id="Ce3TjOt75USyeO9Dkmf0-171" value="" style="group" parent="1" vertex="1" connectable="0">
          <mxGeometry x="720" y="710" width="100" height="50" as="geometry" />
        </mxCell>
        <mxCell id="Ce3TjOt75USyeO9Dkmf0-172" value="&lt;span style=&quot;border-bottom: 1px dotted&quot;&gt;assignment_id&lt;/span&gt;" style="ellipse;whiteSpace=wrap;html=1;align=center;strokeColor=#FFFFFF;fillColor=none;fontColor=#FFFFFF;" parent="Ce3TjOt75USyeO9Dkmf0-171" vertex="1">
          <mxGeometry width="100" height="50" as="geometry" />
        </mxCell>
        <mxCell id="Ce3TjOt75USyeO9Dkmf0-173" value="" style="endArrow=none;html=1;fontColor=#FFFFFF;strokeColor=#FFFFFF;dashed=1;dashPattern=1 1;" parent="Ce3TjOt75USyeO9Dkmf0-171" edge="1">
          <mxGeometry width="50" height="50" relative="1" as="geometry">
            <mxPoint x="20" y="38.75" as="sourcePoint" />
            <mxPoint x="80" y="38.75" as="targetPoint" />
          </mxGeometry>
        </mxCell>
        <mxCell id="Ce3TjOt75USyeO9Dkmf0-174" value="" style="group" parent="1" vertex="1" connectable="0">
          <mxGeometry x="720" y="780" width="100" height="50" as="geometry" />
        </mxCell>
        <mxCell id="Ce3TjOt75USyeO9Dkmf0-175" value="&lt;span style=&quot;border-bottom: 1px dotted&quot;&gt;section_id&lt;/span&gt;" style="ellipse;whiteSpace=wrap;html=1;align=center;strokeColor=#FFFFFF;fillColor=none;fontColor=#FFFFFF;" parent="Ce3TjOt75USyeO9Dkmf0-174" vertex="1">
          <mxGeometry width="100" height="50" as="geometry" />
        </mxCell>
        <mxCell id="Ce3TjOt75USyeO9Dkmf0-176" value="" style="endArrow=none;html=1;fontColor=#FFFFFF;strokeColor=#FFFFFF;dashed=1;dashPattern=1 1;" parent="Ce3TjOt75USyeO9Dkmf0-174" edge="1">
          <mxGeometry width="50" height="50" relative="1" as="geometry">
            <mxPoint x="20" y="38.75" as="sourcePoint" />
            <mxPoint x="80" y="38.75" as="targetPoint" />
          </mxGeometry>
        </mxCell>
        <mxCell id="Ce3TjOt75USyeO9Dkmf0-177" value="" style="endArrow=none;dashed=1;html=1;dashPattern=1 3;strokeWidth=2;rounded=0;strokeColor=#FFFFFF;exitX=1;exitY=0.5;exitDx=0;exitDy=0;entryX=0.015;entryY=0.587;entryDx=0;entryDy=0;entryPerimeter=0;" parent="1" source="Ce3TjOt75USyeO9Dkmf0-164" target="Ce3TjOt75USyeO9Dkmf0-172" edge="1">
          <mxGeometry width="50" height="50" relative="1" as="geometry">
            <mxPoint x="670" y="680" as="sourcePoint" />
            <mxPoint x="730" y="680" as="targetPoint" />
          </mxGeometry>
        </mxCell>
        <mxCell id="Ce3TjOt75USyeO9Dkmf0-178" value="" style="endArrow=none;dashed=1;html=1;dashPattern=1 3;strokeWidth=2;rounded=0;strokeColor=#FFFFFF;entryX=0;entryY=0.5;entryDx=0;entryDy=0;exitX=1;exitY=0.5;exitDx=0;exitDy=0;" parent="1" target="Ce3TjOt75USyeO9Dkmf0-175" edge="1" source="Ce3TjOt75USyeO9Dkmf0-164">
          <mxGeometry width="50" height="50" relative="1" as="geometry">
            <mxPoint x="660" y="670" as="sourcePoint" />
            <mxPoint x="740" y="690" as="targetPoint" />
          </mxGeometry>
        </mxCell>
        <mxCell id="Ce3TjOt75USyeO9Dkmf0-179" value="grade_id" style="ellipse;whiteSpace=wrap;html=1;align=center;strokeColor=#FFFFFF;fillColor=none;fontColor=#FFFFFF;" parent="1" vertex="1">
          <mxGeometry x="495" y="937" width="100" height="40" as="geometry" />
        </mxCell>
        <mxCell id="Ce3TjOt75USyeO9Dkmf0-183" value="due_date" style="ellipse;whiteSpace=wrap;html=1;align=center;strokeColor=#FFFFFF;fillColor=none;fontColor=#FFFFFF;" parent="1" vertex="1">
          <mxGeometry x="510" y="720" width="100" height="40" as="geometry" />
        </mxCell>
        <mxCell id="Ce3TjOt75USyeO9Dkmf0-184" value="" style="endArrow=none;dashed=1;html=1;dashPattern=1 3;strokeWidth=2;rounded=0;strokeColor=#FFFFFF;entryX=1;entryY=0.5;entryDx=0;entryDy=0;exitX=1;exitY=0.5;exitDx=0;exitDy=0;" parent="1" target="Ce3TjOt75USyeO9Dkmf0-183" edge="1" source="Ce3TjOt75USyeO9Dkmf0-164">
          <mxGeometry width="50" height="50" relative="1" as="geometry">
            <mxPoint x="660" y="680" as="sourcePoint" />
            <mxPoint x="645" y="790" as="targetPoint" />
          </mxGeometry>
        </mxCell>
        <mxCell id="Ce3TjOt75USyeO9Dkmf0-189" value="reading_name" style="ellipse;whiteSpace=wrap;html=1;align=center;strokeColor=#FFFFFF;fillColor=none;fontColor=#FFFFFF;" parent="1" vertex="1">
          <mxGeometry x="-210" y="530" width="100" height="40" as="geometry" />
        </mxCell>
        <mxCell id="Ce3TjOt75USyeO9Dkmf0-190" value="" style="endArrow=none;dashed=1;html=1;dashPattern=1 3;strokeWidth=2;rounded=0;exitX=1;exitY=0.5;exitDx=0;exitDy=0;entryX=0;entryY=0.5;entryDx=0;entryDy=0;fillColor=#FFFFFF;strokeColor=#FFFFFF;" parent="1" source="Ce3TjOt75USyeO9Dkmf0-189" target="Ce3TjOt75USyeO9Dkmf0-53" edge="1">
          <mxGeometry width="50" height="50" relative="1" as="geometry">
            <mxPoint x="180" y="640" as="sourcePoint" />
            <mxPoint x="230" y="590" as="targetPoint" />
          </mxGeometry>
        </mxCell>
        <mxCell id="Ce3TjOt75USyeO9Dkmf0-191" value="" style="group" parent="1" vertex="1" connectable="0">
          <mxGeometry x="-120" y="580" width="100" height="50" as="geometry" />
        </mxCell>
        <mxCell id="Ce3TjOt75USyeO9Dkmf0-192" value="&lt;span style=&quot;border-bottom: 1px dotted&quot;&gt;assignment_id&lt;/span&gt;" style="ellipse;whiteSpace=wrap;html=1;align=center;strokeColor=#FFFFFF;fillColor=none;fontColor=#FFFFFF;" parent="Ce3TjOt75USyeO9Dkmf0-191" vertex="1">
          <mxGeometry width="100" height="50" as="geometry" />
        </mxCell>
        <mxCell id="Ce3TjOt75USyeO9Dkmf0-193" value="" style="endArrow=none;html=1;fontColor=#FFFFFF;strokeColor=#FFFFFF;dashed=1;dashPattern=1 1;" parent="Ce3TjOt75USyeO9Dkmf0-191" edge="1">
          <mxGeometry width="50" height="50" relative="1" as="geometry">
            <mxPoint x="20" y="38.75" as="sourcePoint" />
            <mxPoint x="80" y="38.75" as="targetPoint" />
          </mxGeometry>
        </mxCell>
        <mxCell id="Ce3TjOt75USyeO9Dkmf0-194" value="" style="endArrow=none;dashed=1;html=1;dashPattern=1 3;strokeWidth=2;rounded=0;exitX=0.5;exitY=0;exitDx=0;exitDy=0;entryX=-0.014;entryY=0.604;entryDx=0;entryDy=0;fillColor=#FFFFFF;strokeColor=#FFFFFF;entryPerimeter=0;" parent="1" source="Ce3TjOt75USyeO9Dkmf0-192" target="Ce3TjOt75USyeO9Dkmf0-53" edge="1">
          <mxGeometry width="50" height="50" relative="1" as="geometry">
            <mxPoint x="-100" y="560" as="sourcePoint" />
            <mxPoint x="-40" y="510" as="targetPoint" />
          </mxGeometry>
        </mxCell>
        <mxCell id="Ce3TjOt75USyeO9Dkmf0-195" value="" style="group" parent="1" vertex="1" connectable="0">
          <mxGeometry y="40" width="100" height="60" as="geometry" />
        </mxCell>
        <mxCell id="Ce3TjOt75USyeO9Dkmf0-196" value="&lt;span style=&quot;border-bottom: 1px dotted&quot;&gt;Course_code&lt;/span&gt;" style="ellipse;whiteSpace=wrap;html=1;align=center;strokeColor=#FFFFFF;fillColor=none;fontColor=#FFFFFF;" parent="Ce3TjOt75USyeO9Dkmf0-195" vertex="1">
          <mxGeometry width="100" height="60.000000000000014" as="geometry" />
        </mxCell>
        <mxCell id="Ce3TjOt75USyeO9Dkmf0-197" value="" style="endArrow=none;html=1;fontColor=#FFFFFF;strokeColor=#FFFFFF;dashed=1;dashPattern=1 1;" parent="Ce3TjOt75USyeO9Dkmf0-195" edge="1">
          <mxGeometry width="50" height="50" relative="1" as="geometry">
            <mxPoint x="20" y="46.5" as="sourcePoint" />
            <mxPoint x="80" y="46.5" as="targetPoint" />
          </mxGeometry>
        </mxCell>
        <mxCell id="Ce3TjOt75USyeO9Dkmf0-198" value="" style="endArrow=none;dashed=1;html=1;dashPattern=1 3;strokeWidth=2;rounded=0;exitX=1;exitY=1;exitDx=0;exitDy=0;" parent="1" source="Ce3TjOt75USyeO9Dkmf0-196" edge="1">
          <mxGeometry width="50" height="50" relative="1" as="geometry">
            <mxPoint x="70" y="200" as="sourcePoint" />
            <mxPoint x="130" y="180" as="targetPoint" />
          </mxGeometry>
        </mxCell>
        <mxCell id="Ce3TjOt75USyeO9Dkmf0-200" value="" style="endArrow=none;dashed=1;html=1;dashPattern=1 3;strokeWidth=2;rounded=0;exitX=1;exitY=1;exitDx=0;exitDy=0;strokeColor=#FFFFFF;" parent="1" source="Ce3TjOt75USyeO9Dkmf0-196" edge="1">
          <mxGeometry width="50" height="50" relative="1" as="geometry">
            <mxPoint x="50" y="135" as="sourcePoint" />
            <mxPoint x="130" y="180" as="targetPoint" />
          </mxGeometry>
        </mxCell>
        <mxCell id="Ce3TjOt75USyeO9Dkmf0-205" value="" style="endArrow=none;html=1;rounded=0;strokeColor=#FFFFFF;" parent="1" edge="1">
          <mxGeometry width="50" height="50" relative="1" as="geometry">
            <mxPoint x="785" y="439.49" as="sourcePoint" />
            <mxPoint x="715" y="439.49" as="targetPoint" />
          </mxGeometry>
        </mxCell>
        <mxCell id="Ce3TjOt75USyeO9Dkmf0-206" value="" style="endArrow=none;html=1;rounded=0;strokeColor=#FFFFFF;" parent="1" edge="1">
          <mxGeometry width="50" height="50" relative="1" as="geometry">
            <mxPoint x="832.5" y="677.5" as="sourcePoint" />
            <mxPoint x="727.5" y="677.3799999999999" as="targetPoint" />
          </mxGeometry>
        </mxCell>
        <mxCell id="Ce3TjOt75USyeO9Dkmf0-208" value="&lt;font color=&quot;#ffffff&quot;&gt;N&lt;/font&gt;" style="text;strokeColor=none;align=center;fillColor=none;html=1;verticalAlign=middle;whiteSpace=wrap;rounded=0;" parent="1" vertex="1">
          <mxGeometry x="240" y="-20" width="30" height="20" as="geometry" />
        </mxCell>
        <mxCell id="Ce3TjOt75USyeO9Dkmf0-209" value="classroom_id" style="ellipse;whiteSpace=wrap;html=1;align=center;strokeColor=#FFFFFF;fillColor=none;fontColor=#FFFFFF;" parent="1" vertex="1">
          <mxGeometry x="-86" y="-20" width="126" height="40" as="geometry" />
        </mxCell>
        <mxCell id="Ce3TjOt75USyeO9Dkmf0-210" value="classroom_num" style="ellipse;whiteSpace=wrap;html=1;align=center;strokeColor=#FFFFFF;fillColor=none;fontColor=#FFFFFF;" parent="1" vertex="1">
          <mxGeometry x="-66" y="-93" width="100" height="40" as="geometry" />
        </mxCell>
        <mxCell id="Ce3TjOt75USyeO9Dkmf0-211" value="" style="endArrow=none;html=1;rounded=0;strokeColor=#FFFFFF;" parent="1" edge="1">
          <mxGeometry width="50" height="50" relative="1" as="geometry">
            <mxPoint x="14" y="12" as="sourcePoint" />
            <mxPoint x="-56" y="12" as="targetPoint" />
          </mxGeometry>
        </mxCell>
        <mxCell id="Ce3TjOt75USyeO9Dkmf0-212" value="" style="endArrow=none;dashed=1;html=1;dashPattern=1 3;strokeWidth=2;rounded=0;strokeColor=#FFFFFF;entryX=1;entryY=0.5;entryDx=0;entryDy=0;" parent="1" target="Ce3TjOt75USyeO9Dkmf0-210" edge="1">
          <mxGeometry width="50" height="50" relative="1" as="geometry">
            <mxPoint x="129" y="1" as="sourcePoint" />
            <mxPoint x="50" y="10" as="targetPoint" />
          </mxGeometry>
        </mxCell>
        <mxCell id="Ce3TjOt75USyeO9Dkmf0-214" value="assigned_date" style="ellipse;whiteSpace=wrap;html=1;align=center;strokeColor=#FFFFFF;fillColor=none;fontColor=#FFFFFF;" parent="1" vertex="1">
          <mxGeometry x="712" y="546" width="100" height="40" as="geometry" />
        </mxCell>
        <mxCell id="Ce3TjOt75USyeO9Dkmf0-215" value="graded" style="shape=rhombus;perimeter=rhombusPerimeter;whiteSpace=wrap;html=1;align=center;strokeColor=#FFFFFF;fillColor=none;fontColor=#FFFFFF;" parent="1" vertex="1">
          <mxGeometry x="566" y="787" width="120" height="60" as="geometry" />
        </mxCell>
        <mxCell id="Ce3TjOt75USyeO9Dkmf0-216" value="" style="endArrow=none;html=1;rounded=0;strokeColor=#FFFFFF;" parent="1" edge="1">
          <mxGeometry width="50" height="50" relative="1" as="geometry">
            <mxPoint x="580" y="968" as="sourcePoint" />
            <mxPoint x="511" y="967.9999999999999" as="targetPoint" />
          </mxGeometry>
        </mxCell>
        <mxCell id="Ce3TjOt75USyeO9Dkmf0-217" value="" style="group" parent="1" vertex="1" connectable="0">
          <mxGeometry x="656" y="927" width="148" height="50" as="geometry" />
        </mxCell>
        <mxCell id="Ce3TjOt75USyeO9Dkmf0-218" value="&lt;span style=&quot;border-bottom: 1px dotted&quot;&gt;assignment_instance_id&lt;/span&gt;" style="ellipse;whiteSpace=wrap;html=1;align=center;strokeColor=#FFFFFF;fillColor=none;fontColor=#FFFFFF;" parent="Ce3TjOt75USyeO9Dkmf0-217" vertex="1">
          <mxGeometry width="148" height="50" as="geometry" />
        </mxCell>
        <mxCell id="Ce3TjOt75USyeO9Dkmf0-219" value="" style="endArrow=none;html=1;fontColor=#FFFFFF;strokeColor=#FFFFFF;dashed=1;dashPattern=1 1;" parent="Ce3TjOt75USyeO9Dkmf0-217" edge="1">
          <mxGeometry width="50" height="50" relative="1" as="geometry">
            <mxPoint x="25.299145299145298" y="38.75" as="sourcePoint" />
            <mxPoint x="101.19658119658119" y="38.75" as="targetPoint" />
          </mxGeometry>
        </mxCell>
        <mxCell id="Ce3TjOt75USyeO9Dkmf0-220" value="student_id" style="ellipse;whiteSpace=wrap;html=1;align=center;strokeColor=#FFFFFF;fillColor=none;fontColor=#FFFFFF;" parent="1" vertex="1">
          <mxGeometry x="410" y="897" width="100" height="40" as="geometry" />
        </mxCell>
        <mxCell id="Ce3TjOt75USyeO9Dkmf0-221" value="grade" style="ellipse;whiteSpace=wrap;html=1;align=center;strokeColor=#FFFFFF;fillColor=none;fontColor=#FFFFFF;" parent="1" vertex="1">
          <mxGeometry x="732" y="887" width="100" height="40" as="geometry" />
        </mxCell>
        <mxCell id="Ce3TjOt75USyeO9Dkmf0-222" value="" style="endArrow=none;dashed=1;html=1;dashPattern=1 3;strokeWidth=2;rounded=0;strokeColor=#FFFFFF;entryX=0.5;entryY=0;entryDx=0;entryDy=0;" parent="1" source="Ce3TjOt75USyeO9Dkmf0-215" target="Ce3TjOt75USyeO9Dkmf0-221" edge="1">
          <mxGeometry width="50" height="50" relative="1" as="geometry">
            <mxPoint x="670" y="680" as="sourcePoint" />
            <mxPoint x="730" y="815" as="targetPoint" />
          </mxGeometry>
        </mxCell>
        <mxCell id="Ce3TjOt75USyeO9Dkmf0-223" value="" style="endArrow=none;dashed=1;html=1;dashPattern=1 3;strokeWidth=2;rounded=0;strokeColor=#FFFFFF;" parent="1" source="Ce3TjOt75USyeO9Dkmf0-215" target="Ce3TjOt75USyeO9Dkmf0-218" edge="1">
          <mxGeometry width="50" height="50" relative="1" as="geometry">
            <mxPoint x="680" y="690" as="sourcePoint" />
            <mxPoint x="740" y="825" as="targetPoint" />
          </mxGeometry>
        </mxCell>
        <mxCell id="Ce3TjOt75USyeO9Dkmf0-224" value="" style="endArrow=none;dashed=1;html=1;dashPattern=1 3;strokeWidth=2;rounded=0;strokeColor=#FFFFFF;entryX=0.5;entryY=0;entryDx=0;entryDy=0;exitX=0;exitY=1;exitDx=0;exitDy=0;" parent="1" source="Ce3TjOt75USyeO9Dkmf0-215" target="Ce3TjOt75USyeO9Dkmf0-179" edge="1">
          <mxGeometry width="50" height="50" relative="1" as="geometry">
            <mxPoint x="690" y="700" as="sourcePoint" />
            <mxPoint x="750" y="835" as="targetPoint" />
          </mxGeometry>
        </mxCell>
        <mxCell id="Ce3TjOt75USyeO9Dkmf0-225" value="" style="endArrow=none;dashed=1;html=1;dashPattern=1 3;strokeWidth=2;rounded=0;strokeColor=#FFFFFF;exitX=0;exitY=0.5;exitDx=0;exitDy=0;" parent="1" source="Ce3TjOt75USyeO9Dkmf0-215" target="Ce3TjOt75USyeO9Dkmf0-220" edge="1">
          <mxGeometry width="50" height="50" relative="1" as="geometry">
            <mxPoint x="700" y="710" as="sourcePoint" />
            <mxPoint x="760" y="845" as="targetPoint" />
          </mxGeometry>
        </mxCell>
        <mxCell id="Ce3TjOt75USyeO9Dkmf0-227" value="" style="endArrow=none;html=1;fontColor=#FFFFFF;strokeColor=#FFFFFF;dashed=1;dashPattern=1 1;" parent="1" edge="1">
          <mxGeometry width="50" height="50" relative="1" as="geometry">
            <mxPoint x="430" y="927" as="sourcePoint" />
            <mxPoint x="490" y="927" as="targetPoint" />
          </mxGeometry>
        </mxCell>
        <mxCell id="Ce3TjOt75USyeO9Dkmf0-228" value="" style="endArrow=none;html=1;fontColor=#FFFFFF;strokeColor=#FFFFFF;dashed=1;dashPattern=1 1;" parent="1" edge="1">
          <mxGeometry width="50" height="50" relative="1" as="geometry">
            <mxPoint x="430" y="931" as="sourcePoint" />
            <mxPoint x="490" y="931" as="targetPoint" />
          </mxGeometry>
        </mxCell>
      </root>
    </mxGraphModel>
  </diagram>
  <diagram name="Entities &amp; Attributes" id="x3uQBSlmDtTH4PlA1bDb">
    <mxGraphModel dx="348" dy="485" grid="1" gridSize="10" guides="1" tooltips="1" connect="1" arrows="1" fold="1" page="1" pageScale="1" pageWidth="850" pageHeight="1100" background="#000000" math="0" shadow="0" extFonts="Permanent Marker^https://fonts.googleapis.com/css?family=Permanent+Marker">
      <root>
        <mxCell id="8Mt_m_WyQLmfWNq4UV26-0" />
        <mxCell id="8Mt_m_WyQLmfWNq4UV26-1" parent="8Mt_m_WyQLmfWNq4UV26-0" />
        <mxCell id="8Mt_m_WyQLmfWNq4UV26-2" value="Dog" style="whiteSpace=wrap;html=1;align=center;strokeColor=#FFFFFF;fillColor=none;fontColor=#FFFFFF;" parent="8Mt_m_WyQLmfWNq4UV26-1" vertex="1">
          <mxGeometry x="180" y="190" width="100" height="40" as="geometry" />
        </mxCell>
        <mxCell id="8Mt_m_WyQLmfWNq4UV26-6" value="Name" style="ellipse;whiteSpace=wrap;html=1;align=center;strokeColor=#FFFFFF;fillColor=none;fontColor=#FFFFFF;" parent="8Mt_m_WyQLmfWNq4UV26-1" vertex="1">
          <mxGeometry x="40" y="100" width="100" height="40" as="geometry" />
        </mxCell>
        <mxCell id="8Mt_m_WyQLmfWNq4UV26-7" value="Age" style="ellipse;whiteSpace=wrap;html=1;align=center;strokeColor=#FFFFFF;fillColor=none;fontColor=#FFFFFF;" parent="8Mt_m_WyQLmfWNq4UV26-1" vertex="1">
          <mxGeometry x="40" y="160" width="100" height="40" as="geometry" />
        </mxCell>
        <mxCell id="8Mt_m_WyQLmfWNq4UV26-8" value="Breed" style="ellipse;whiteSpace=wrap;html=1;align=center;strokeColor=#FFFFFF;fillColor=none;fontColor=#FFFFFF;" parent="8Mt_m_WyQLmfWNq4UV26-1" vertex="1">
          <mxGeometry x="40" y="220" width="100" height="40" as="geometry" />
        </mxCell>
        <mxCell id="8Mt_m_WyQLmfWNq4UV26-9" value="Sex" style="ellipse;whiteSpace=wrap;html=1;align=center;strokeColor=#FFFFFF;fillColor=none;fontColor=#FFFFFF;" parent="8Mt_m_WyQLmfWNq4UV26-1" vertex="1">
          <mxGeometry x="40" y="280" width="100" height="40" as="geometry" />
        </mxCell>
        <mxCell id="8Mt_m_WyQLmfWNq4UV26-10" value="Fur color" style="ellipse;whiteSpace=wrap;html=1;align=center;strokeColor=#FFFFFF;fillColor=none;fontColor=#FFFFFF;" parent="8Mt_m_WyQLmfWNq4UV26-1" vertex="1">
          <mxGeometry x="40" y="340" width="100" height="40" as="geometry" />
        </mxCell>
        <mxCell id="8Mt_m_WyQLmfWNq4UV26-11" value="" style="endArrow=none;html=1;dashed=1;dashPattern=1 1;strokeColor=#FFFFFF;fontColor=#FFFFFF;" parent="8Mt_m_WyQLmfWNq4UV26-1" source="8Mt_m_WyQLmfWNq4UV26-2" target="8Mt_m_WyQLmfWNq4UV26-6" edge="1">
          <mxGeometry width="50" height="50" relative="1" as="geometry">
            <mxPoint x="210" y="170" as="sourcePoint" />
            <mxPoint x="260" y="120" as="targetPoint" />
          </mxGeometry>
        </mxCell>
        <mxCell id="8Mt_m_WyQLmfWNq4UV26-12" value="" style="endArrow=none;html=1;dashed=1;dashPattern=1 1;strokeColor=#FFFFFF;fontColor=#FFFFFF;" parent="8Mt_m_WyQLmfWNq4UV26-1" source="8Mt_m_WyQLmfWNq4UV26-2" target="8Mt_m_WyQLmfWNq4UV26-7" edge="1">
          <mxGeometry width="50" height="50" relative="1" as="geometry">
            <mxPoint x="233.33333333333337" y="230" as="sourcePoint" />
            <mxPoint x="123.52941176470449" y="147.64705882352825" as="targetPoint" />
          </mxGeometry>
        </mxCell>
        <mxCell id="8Mt_m_WyQLmfWNq4UV26-13" value="" style="endArrow=none;html=1;dashed=1;dashPattern=1 1;strokeColor=#FFFFFF;fontColor=#FFFFFF;" parent="8Mt_m_WyQLmfWNq4UV26-1" source="8Mt_m_WyQLmfWNq4UV26-2" target="8Mt_m_WyQLmfWNq4UV26-8" edge="1">
          <mxGeometry width="50" height="50" relative="1" as="geometry">
            <mxPoint x="210" y="231.25" as="sourcePoint" />
            <mxPoint x="136.47686020700291" y="203.67882257762597" as="targetPoint" />
          </mxGeometry>
        </mxCell>
        <mxCell id="8Mt_m_WyQLmfWNq4UV26-14" value="" style="endArrow=none;html=1;dashed=1;dashPattern=1 1;strokeColor=#FFFFFF;fontColor=#FFFFFF;" parent="8Mt_m_WyQLmfWNq4UV26-1" source="8Mt_m_WyQLmfWNq4UV26-2" target="8Mt_m_WyQLmfWNq4UV26-9" edge="1">
          <mxGeometry width="50" height="50" relative="1" as="geometry">
            <mxPoint x="220" y="241.25" as="sourcePoint" />
            <mxPoint x="149.27300578721747" y="246.60186166984704" as="targetPoint" />
          </mxGeometry>
        </mxCell>
        <mxCell id="8Mt_m_WyQLmfWNq4UV26-15" value="" style="endArrow=none;html=1;dashed=1;dashPattern=1 1;strokeColor=#FFFFFF;fontColor=#FFFFFF;" parent="8Mt_m_WyQLmfWNq4UV26-1" source="8Mt_m_WyQLmfWNq4UV26-2" target="8Mt_m_WyQLmfWNq4UV26-10" edge="1">
          <mxGeometry width="50" height="50" relative="1" as="geometry">
            <mxPoint x="230" y="251.25" as="sourcePoint" />
            <mxPoint x="159.27300578721747" y="256.60186166984704" as="targetPoint" />
          </mxGeometry>
        </mxCell>
        <mxCell id="8Mt_m_WyQLmfWNq4UV26-16" value="Person" style="whiteSpace=wrap;html=1;align=center;strokeColor=#FFFFFF;fillColor=none;fontColor=#FFFFFF;" parent="8Mt_m_WyQLmfWNq4UV26-1" vertex="1">
          <mxGeometry x="480" y="190" width="100" height="40" as="geometry" />
        </mxCell>
        <mxCell id="8Mt_m_WyQLmfWNq4UV26-17" value="Name" style="ellipse;whiteSpace=wrap;html=1;align=center;strokeColor=#FFFFFF;fillColor=none;fontColor=#FFFFFF;" parent="8Mt_m_WyQLmfWNq4UV26-1" vertex="1">
          <mxGeometry x="620" y="110" width="100" height="40" as="geometry" />
        </mxCell>
        <mxCell id="8Mt_m_WyQLmfWNq4UV26-18" value="Age" style="ellipse;whiteSpace=wrap;html=1;align=center;strokeColor=#FFFFFF;fillColor=none;fontColor=#FFFFFF;" parent="8Mt_m_WyQLmfWNq4UV26-1" vertex="1">
          <mxGeometry x="620" y="170" width="100" height="40" as="geometry" />
        </mxCell>
        <mxCell id="8Mt_m_WyQLmfWNq4UV26-19" value="Sex" style="ellipse;whiteSpace=wrap;html=1;align=center;strokeColor=#FFFFFF;fillColor=none;fontColor=#FFFFFF;" parent="8Mt_m_WyQLmfWNq4UV26-1" vertex="1">
          <mxGeometry x="620" y="230" width="100" height="40" as="geometry" />
        </mxCell>
        <mxCell id="8Mt_m_WyQLmfWNq4UV26-20" value="Height" style="ellipse;whiteSpace=wrap;html=1;align=center;strokeColor=#FFFFFF;fillColor=none;fontColor=#FFFFFF;" parent="8Mt_m_WyQLmfWNq4UV26-1" vertex="1">
          <mxGeometry x="620" y="290" width="100" height="40" as="geometry" />
        </mxCell>
        <mxCell id="8Mt_m_WyQLmfWNq4UV26-21" value="Weight" style="ellipse;whiteSpace=wrap;html=1;align=center;strokeColor=#FFFFFF;fillColor=none;fontColor=#FFFFFF;" parent="8Mt_m_WyQLmfWNq4UV26-1" vertex="1">
          <mxGeometry x="620" y="350" width="100" height="40" as="geometry" />
        </mxCell>
        <mxCell id="8Mt_m_WyQLmfWNq4UV26-22" value="" style="endArrow=none;html=1;dashed=1;dashPattern=1 1;strokeColor=#FFFFFF;fontColor=#FFFFFF;" parent="8Mt_m_WyQLmfWNq4UV26-1" source="8Mt_m_WyQLmfWNq4UV26-16" target="8Mt_m_WyQLmfWNq4UV26-17" edge="1">
          <mxGeometry width="50" height="50" relative="1" as="geometry">
            <mxPoint x="520" y="180" as="sourcePoint" />
            <mxPoint x="570" y="130" as="targetPoint" />
          </mxGeometry>
        </mxCell>
        <mxCell id="8Mt_m_WyQLmfWNq4UV26-23" value="" style="endArrow=none;html=1;dashed=1;dashPattern=1 1;strokeColor=#FFFFFF;fontColor=#FFFFFF;" parent="8Mt_m_WyQLmfWNq4UV26-1" source="8Mt_m_WyQLmfWNq4UV26-16" target="8Mt_m_WyQLmfWNq4UV26-18" edge="1">
          <mxGeometry width="50" height="50" relative="1" as="geometry">
            <mxPoint x="543.3333333333334" y="240" as="sourcePoint" />
            <mxPoint x="433.5294117647045" y="157.64705882352825" as="targetPoint" />
          </mxGeometry>
        </mxCell>
        <mxCell id="8Mt_m_WyQLmfWNq4UV26-24" value="" style="endArrow=none;html=1;dashed=1;dashPattern=1 1;strokeColor=#FFFFFF;fontColor=#FFFFFF;" parent="8Mt_m_WyQLmfWNq4UV26-1" source="8Mt_m_WyQLmfWNq4UV26-16" target="8Mt_m_WyQLmfWNq4UV26-19" edge="1">
          <mxGeometry width="50" height="50" relative="1" as="geometry">
            <mxPoint x="520" y="241.25" as="sourcePoint" />
            <mxPoint x="446.4768602070029" y="213.67882257762597" as="targetPoint" />
          </mxGeometry>
        </mxCell>
        <mxCell id="8Mt_m_WyQLmfWNq4UV26-25" value="" style="endArrow=none;html=1;dashed=1;dashPattern=1 1;strokeColor=#FFFFFF;fontColor=#FFFFFF;" parent="8Mt_m_WyQLmfWNq4UV26-1" source="8Mt_m_WyQLmfWNq4UV26-16" target="8Mt_m_WyQLmfWNq4UV26-20" edge="1">
          <mxGeometry width="50" height="50" relative="1" as="geometry">
            <mxPoint x="530" y="251.25" as="sourcePoint" />
            <mxPoint x="459.27300578721747" y="256.60186166984704" as="targetPoint" />
          </mxGeometry>
        </mxCell>
        <mxCell id="8Mt_m_WyQLmfWNq4UV26-26" value="" style="endArrow=none;html=1;dashed=1;dashPattern=1 1;strokeColor=#FFFFFF;fontColor=#FFFFFF;" parent="8Mt_m_WyQLmfWNq4UV26-1" source="8Mt_m_WyQLmfWNq4UV26-16" target="8Mt_m_WyQLmfWNq4UV26-21" edge="1">
          <mxGeometry width="50" height="50" relative="1" as="geometry">
            <mxPoint x="540" y="261.25" as="sourcePoint" />
            <mxPoint x="469.27300578721747" y="266.60186166984704" as="targetPoint" />
          </mxGeometry>
        </mxCell>
        <mxCell id="8Mt_m_WyQLmfWNq4UV26-27" value="Chip ID" style="ellipse;whiteSpace=wrap;html=1;align=center;fontStyle=4;strokeColor=#FFFFFF;fillColor=none;fontColor=#FFFFFF;" parent="8Mt_m_WyQLmfWNq4UV26-1" vertex="1">
          <mxGeometry x="40" y="40" width="100" height="40" as="geometry" />
        </mxCell>
        <mxCell id="8Mt_m_WyQLmfWNq4UV26-28" value="" style="endArrow=none;html=1;dashed=1;dashPattern=1 1;strokeColor=#FFFFFF;fontColor=#FFFFFF;" parent="8Mt_m_WyQLmfWNq4UV26-1" source="8Mt_m_WyQLmfWNq4UV26-2" target="8Mt_m_WyQLmfWNq4UV26-27" edge="1">
          <mxGeometry width="50" height="50" relative="1" as="geometry">
            <mxPoint x="216.66666666666674" y="230" as="sourcePoint" />
            <mxPoint x="121.14427326655482" y="148.12366279990408" as="targetPoint" />
          </mxGeometry>
        </mxCell>
        <mxCell id="8Mt_m_WyQLmfWNq4UV26-29" value="" style="endArrow=none;html=1;dashed=1;dashPattern=1 1;strokeColor=#FFFFFF;fontColor=#FFFFFF;" parent="8Mt_m_WyQLmfWNq4UV26-1" source="8Mt_m_WyQLmfWNq4UV26-16" target="8Mt_m_WyQLmfWNq4UV26-30" edge="1">
          <mxGeometry width="50" height="50" relative="1" as="geometry">
            <mxPoint x="563.3333333333333" y="240" as="sourcePoint" />
            <mxPoint x="651" y="80" as="targetPoint" />
          </mxGeometry>
        </mxCell>
        <mxCell id="8Mt_m_WyQLmfWNq4UV26-30" value="Social Security Number" style="ellipse;whiteSpace=wrap;html=1;align=center;fontStyle=4;strokeColor=#FFFFFF;fillColor=none;fontColor=#FFFFFF;" parent="8Mt_m_WyQLmfWNq4UV26-1" vertex="1">
          <mxGeometry x="620" y="50" width="100" height="40" as="geometry" />
        </mxCell>
      </root>
    </mxGraphModel>
  </diagram>
  <diagram name="Relationships" id="x3Dpfew6YXMBg5Lt1oDi">
    <mxGraphModel dx="348" dy="485" grid="1" gridSize="10" guides="1" tooltips="1" connect="1" arrows="1" fold="1" page="1" pageScale="1" pageWidth="850" pageHeight="1100" background="#000000" math="0" shadow="0" extFonts="Permanent Marker^https://fonts.googleapis.com/css?family=Permanent+Marker">
      <root>
        <mxCell id="bvYGP_05jQYxHPNjV4Q_-0" />
        <mxCell id="bvYGP_05jQYxHPNjV4Q_-1" parent="bvYGP_05jQYxHPNjV4Q_-0" />
        <mxCell id="bvYGP_05jQYxHPNjV4Q_-2" value="Dog" style="whiteSpace=wrap;html=1;align=center;strokeColor=#FFFFFF;fillColor=none;fontColor=#FFFFFF;" parent="bvYGP_05jQYxHPNjV4Q_-1" vertex="1">
          <mxGeometry x="180" y="190" width="100" height="40" as="geometry" />
        </mxCell>
        <mxCell id="bvYGP_05jQYxHPNjV4Q_-4" value="Name" style="ellipse;whiteSpace=wrap;html=1;align=center;strokeColor=#FFFFFF;fillColor=none;fontColor=#FFFFFF;" parent="bvYGP_05jQYxHPNjV4Q_-1" vertex="1">
          <mxGeometry x="40" y="100" width="100" height="40" as="geometry" />
        </mxCell>
        <mxCell id="bvYGP_05jQYxHPNjV4Q_-5" value="Age" style="ellipse;whiteSpace=wrap;html=1;align=center;strokeColor=#FFFFFF;fillColor=none;fontColor=#FFFFFF;" parent="bvYGP_05jQYxHPNjV4Q_-1" vertex="1">
          <mxGeometry x="40" y="160" width="100" height="40" as="geometry" />
        </mxCell>
        <mxCell id="bvYGP_05jQYxHPNjV4Q_-6" value="Breed" style="ellipse;whiteSpace=wrap;html=1;align=center;strokeColor=#FFFFFF;fillColor=none;fontColor=#FFFFFF;" parent="bvYGP_05jQYxHPNjV4Q_-1" vertex="1">
          <mxGeometry x="40" y="220" width="100" height="40" as="geometry" />
        </mxCell>
        <mxCell id="bvYGP_05jQYxHPNjV4Q_-7" value="Sex" style="ellipse;whiteSpace=wrap;html=1;align=center;strokeColor=#FFFFFF;fillColor=none;fontColor=#FFFFFF;" parent="bvYGP_05jQYxHPNjV4Q_-1" vertex="1">
          <mxGeometry x="40" y="280" width="100" height="40" as="geometry" />
        </mxCell>
        <mxCell id="bvYGP_05jQYxHPNjV4Q_-8" value="Fur color" style="ellipse;whiteSpace=wrap;html=1;align=center;strokeColor=#FFFFFF;fillColor=none;fontColor=#FFFFFF;" parent="bvYGP_05jQYxHPNjV4Q_-1" vertex="1">
          <mxGeometry x="40" y="340" width="100" height="40" as="geometry" />
        </mxCell>
        <mxCell id="bvYGP_05jQYxHPNjV4Q_-9" value="" style="endArrow=none;html=1;dashed=1;dashPattern=1 1;strokeColor=#FFFFFF;fontColor=#FFFFFF;" parent="bvYGP_05jQYxHPNjV4Q_-1" source="bvYGP_05jQYxHPNjV4Q_-2" target="bvYGP_05jQYxHPNjV4Q_-4" edge="1">
          <mxGeometry width="50" height="50" relative="1" as="geometry">
            <mxPoint x="210" y="170" as="sourcePoint" />
            <mxPoint x="260" y="120" as="targetPoint" />
          </mxGeometry>
        </mxCell>
        <mxCell id="bvYGP_05jQYxHPNjV4Q_-10" value="" style="endArrow=none;html=1;dashed=1;dashPattern=1 1;strokeColor=#FFFFFF;fontColor=#FFFFFF;" parent="bvYGP_05jQYxHPNjV4Q_-1" source="bvYGP_05jQYxHPNjV4Q_-2" target="bvYGP_05jQYxHPNjV4Q_-5" edge="1">
          <mxGeometry width="50" height="50" relative="1" as="geometry">
            <mxPoint x="233.33333333333337" y="230" as="sourcePoint" />
            <mxPoint x="123.52941176470449" y="147.64705882352825" as="targetPoint" />
          </mxGeometry>
        </mxCell>
        <mxCell id="bvYGP_05jQYxHPNjV4Q_-11" value="" style="endArrow=none;html=1;dashed=1;dashPattern=1 1;strokeColor=#FFFFFF;fontColor=#FFFFFF;" parent="bvYGP_05jQYxHPNjV4Q_-1" source="bvYGP_05jQYxHPNjV4Q_-2" target="bvYGP_05jQYxHPNjV4Q_-6" edge="1">
          <mxGeometry width="50" height="50" relative="1" as="geometry">
            <mxPoint x="210" y="231.25" as="sourcePoint" />
            <mxPoint x="136.47686020700291" y="203.67882257762597" as="targetPoint" />
          </mxGeometry>
        </mxCell>
        <mxCell id="bvYGP_05jQYxHPNjV4Q_-12" value="" style="endArrow=none;html=1;dashed=1;dashPattern=1 1;strokeColor=#FFFFFF;fontColor=#FFFFFF;" parent="bvYGP_05jQYxHPNjV4Q_-1" source="bvYGP_05jQYxHPNjV4Q_-2" target="bvYGP_05jQYxHPNjV4Q_-7" edge="1">
          <mxGeometry width="50" height="50" relative="1" as="geometry">
            <mxPoint x="220" y="241.25" as="sourcePoint" />
            <mxPoint x="149.27300578721747" y="246.60186166984704" as="targetPoint" />
          </mxGeometry>
        </mxCell>
        <mxCell id="bvYGP_05jQYxHPNjV4Q_-13" value="" style="endArrow=none;html=1;dashed=1;dashPattern=1 1;strokeColor=#FFFFFF;fontColor=#FFFFFF;" parent="bvYGP_05jQYxHPNjV4Q_-1" source="bvYGP_05jQYxHPNjV4Q_-2" target="bvYGP_05jQYxHPNjV4Q_-8" edge="1">
          <mxGeometry width="50" height="50" relative="1" as="geometry">
            <mxPoint x="230" y="251.25" as="sourcePoint" />
            <mxPoint x="159.27300578721747" y="256.60186166984704" as="targetPoint" />
          </mxGeometry>
        </mxCell>
        <mxCell id="bvYGP_05jQYxHPNjV4Q_-14" value="Person" style="whiteSpace=wrap;html=1;align=center;strokeColor=#FFFFFF;fillColor=none;fontColor=#FFFFFF;" parent="bvYGP_05jQYxHPNjV4Q_-1" vertex="1">
          <mxGeometry x="480" y="190" width="100" height="40" as="geometry" />
        </mxCell>
        <mxCell id="bvYGP_05jQYxHPNjV4Q_-15" value="Name" style="ellipse;whiteSpace=wrap;html=1;align=center;strokeColor=#FFFFFF;fillColor=none;fontColor=#FFFFFF;" parent="bvYGP_05jQYxHPNjV4Q_-1" vertex="1">
          <mxGeometry x="620" y="110" width="100" height="40" as="geometry" />
        </mxCell>
        <mxCell id="bvYGP_05jQYxHPNjV4Q_-16" value="Age" style="ellipse;whiteSpace=wrap;html=1;align=center;strokeColor=#FFFFFF;fillColor=none;fontColor=#FFFFFF;" parent="bvYGP_05jQYxHPNjV4Q_-1" vertex="1">
          <mxGeometry x="620" y="170" width="100" height="40" as="geometry" />
        </mxCell>
        <mxCell id="bvYGP_05jQYxHPNjV4Q_-17" value="Sex" style="ellipse;whiteSpace=wrap;html=1;align=center;strokeColor=#FFFFFF;fillColor=none;fontColor=#FFFFFF;" parent="bvYGP_05jQYxHPNjV4Q_-1" vertex="1">
          <mxGeometry x="620" y="230" width="100" height="40" as="geometry" />
        </mxCell>
        <mxCell id="bvYGP_05jQYxHPNjV4Q_-18" value="Height" style="ellipse;whiteSpace=wrap;html=1;align=center;strokeColor=#FFFFFF;fillColor=none;fontColor=#FFFFFF;" parent="bvYGP_05jQYxHPNjV4Q_-1" vertex="1">
          <mxGeometry x="620" y="290" width="100" height="40" as="geometry" />
        </mxCell>
        <mxCell id="bvYGP_05jQYxHPNjV4Q_-19" value="Weight" style="ellipse;whiteSpace=wrap;html=1;align=center;strokeColor=#FFFFFF;fillColor=none;fontColor=#FFFFFF;" parent="bvYGP_05jQYxHPNjV4Q_-1" vertex="1">
          <mxGeometry x="620" y="350" width="100" height="40" as="geometry" />
        </mxCell>
        <mxCell id="bvYGP_05jQYxHPNjV4Q_-20" value="" style="endArrow=none;html=1;dashed=1;dashPattern=1 1;strokeColor=#FFFFFF;fontColor=#FFFFFF;" parent="bvYGP_05jQYxHPNjV4Q_-1" source="bvYGP_05jQYxHPNjV4Q_-14" target="bvYGP_05jQYxHPNjV4Q_-15" edge="1">
          <mxGeometry width="50" height="50" relative="1" as="geometry">
            <mxPoint x="520" y="180" as="sourcePoint" />
            <mxPoint x="570" y="130" as="targetPoint" />
          </mxGeometry>
        </mxCell>
        <mxCell id="bvYGP_05jQYxHPNjV4Q_-21" value="" style="endArrow=none;html=1;dashed=1;dashPattern=1 1;strokeColor=#FFFFFF;fontColor=#FFFFFF;" parent="bvYGP_05jQYxHPNjV4Q_-1" source="bvYGP_05jQYxHPNjV4Q_-14" target="bvYGP_05jQYxHPNjV4Q_-16" edge="1">
          <mxGeometry width="50" height="50" relative="1" as="geometry">
            <mxPoint x="543.3333333333334" y="240" as="sourcePoint" />
            <mxPoint x="433.5294117647045" y="157.64705882352825" as="targetPoint" />
          </mxGeometry>
        </mxCell>
        <mxCell id="bvYGP_05jQYxHPNjV4Q_-22" value="" style="endArrow=none;html=1;dashed=1;dashPattern=1 1;strokeColor=#FFFFFF;fontColor=#FFFFFF;" parent="bvYGP_05jQYxHPNjV4Q_-1" source="bvYGP_05jQYxHPNjV4Q_-14" target="bvYGP_05jQYxHPNjV4Q_-17" edge="1">
          <mxGeometry width="50" height="50" relative="1" as="geometry">
            <mxPoint x="520" y="241.25" as="sourcePoint" />
            <mxPoint x="446.4768602070029" y="213.67882257762597" as="targetPoint" />
          </mxGeometry>
        </mxCell>
        <mxCell id="bvYGP_05jQYxHPNjV4Q_-23" value="" style="endArrow=none;html=1;dashed=1;dashPattern=1 1;strokeColor=#FFFFFF;fontColor=#FFFFFF;" parent="bvYGP_05jQYxHPNjV4Q_-1" source="bvYGP_05jQYxHPNjV4Q_-14" target="bvYGP_05jQYxHPNjV4Q_-18" edge="1">
          <mxGeometry width="50" height="50" relative="1" as="geometry">
            <mxPoint x="530" y="251.25" as="sourcePoint" />
            <mxPoint x="459.27300578721747" y="256.60186166984704" as="targetPoint" />
          </mxGeometry>
        </mxCell>
        <mxCell id="bvYGP_05jQYxHPNjV4Q_-24" value="" style="endArrow=none;html=1;dashed=1;dashPattern=1 1;strokeColor=#FFFFFF;fontColor=#FFFFFF;" parent="bvYGP_05jQYxHPNjV4Q_-1" source="bvYGP_05jQYxHPNjV4Q_-14" target="bvYGP_05jQYxHPNjV4Q_-19" edge="1">
          <mxGeometry width="50" height="50" relative="1" as="geometry">
            <mxPoint x="540" y="261.25" as="sourcePoint" />
            <mxPoint x="469.27300578721747" y="266.60186166984704" as="targetPoint" />
          </mxGeometry>
        </mxCell>
        <mxCell id="bvYGP_05jQYxHPNjV4Q_-25" value="Chip ID" style="ellipse;whiteSpace=wrap;html=1;align=center;fontStyle=4;strokeColor=#FFFFFF;fillColor=none;fontColor=#FFFFFF;" parent="bvYGP_05jQYxHPNjV4Q_-1" vertex="1">
          <mxGeometry x="40" y="40" width="100" height="40" as="geometry" />
        </mxCell>
        <mxCell id="bvYGP_05jQYxHPNjV4Q_-26" value="" style="endArrow=none;html=1;dashed=1;dashPattern=1 1;strokeColor=#FFFFFF;fontColor=#FFFFFF;" parent="bvYGP_05jQYxHPNjV4Q_-1" source="bvYGP_05jQYxHPNjV4Q_-2" target="bvYGP_05jQYxHPNjV4Q_-25" edge="1">
          <mxGeometry width="50" height="50" relative="1" as="geometry">
            <mxPoint x="216.66666666666674" y="230" as="sourcePoint" />
            <mxPoint x="121.14427326655482" y="148.12366279990408" as="targetPoint" />
          </mxGeometry>
        </mxCell>
        <mxCell id="bvYGP_05jQYxHPNjV4Q_-27" value="" style="endArrow=none;html=1;dashed=1;dashPattern=1 1;strokeColor=#FFFFFF;fontColor=#FFFFFF;" parent="bvYGP_05jQYxHPNjV4Q_-1" source="bvYGP_05jQYxHPNjV4Q_-14" target="bvYGP_05jQYxHPNjV4Q_-28" edge="1">
          <mxGeometry width="50" height="50" relative="1" as="geometry">
            <mxPoint x="563.3333333333333" y="240" as="sourcePoint" />
            <mxPoint x="651" y="80" as="targetPoint" />
          </mxGeometry>
        </mxCell>
        <mxCell id="bvYGP_05jQYxHPNjV4Q_-28" value="Social Security Number" style="ellipse;whiteSpace=wrap;html=1;align=center;fontStyle=4;strokeColor=#FFFFFF;fillColor=none;fontColor=#FFFFFF;" parent="bvYGP_05jQYxHPNjV4Q_-1" vertex="1">
          <mxGeometry x="620" y="50" width="100" height="40" as="geometry" />
        </mxCell>
        <mxCell id="bvYGP_05jQYxHPNjV4Q_-31" value="Owns" style="shape=rhombus;perimeter=rhombusPerimeter;whiteSpace=wrap;html=1;align=center;strokeColor=#FFFFFF;fillColor=none;fontColor=#FFFFFF;" parent="bvYGP_05jQYxHPNjV4Q_-1" vertex="1">
          <mxGeometry x="320" y="180" width="120" height="60" as="geometry" />
        </mxCell>
        <mxCell id="bvYGP_05jQYxHPNjV4Q_-32" value="" style="endArrow=none;html=1;dashed=1;dashPattern=1 1;strokeColor=#FFFFFF;fontColor=#FFFFFF;entryX=0;entryY=0.5;entryDx=0;entryDy=0;" parent="bvYGP_05jQYxHPNjV4Q_-1" source="bvYGP_05jQYxHPNjV4Q_-2" target="bvYGP_05jQYxHPNjV4Q_-31" edge="1">
          <mxGeometry width="50" height="50" relative="1" as="geometry">
            <mxPoint x="277.4999999999998" y="240.00000000000023" as="sourcePoint" />
            <mxPoint x="360.96774193548345" y="284.51612903225805" as="targetPoint" />
          </mxGeometry>
        </mxCell>
        <mxCell id="bvYGP_05jQYxHPNjV4Q_-33" value="" style="endArrow=none;html=1;dashed=1;dashPattern=1 1;strokeColor=#FFFFFF;fontColor=#FFFFFF;entryX=1;entryY=0.5;entryDx=0;entryDy=0;" parent="bvYGP_05jQYxHPNjV4Q_-1" source="bvYGP_05jQYxHPNjV4Q_-14" target="bvYGP_05jQYxHPNjV4Q_-31" edge="1">
          <mxGeometry width="50" height="50" relative="1" as="geometry">
            <mxPoint x="269.9999999999998" y="200.00000000000023" as="sourcePoint" />
            <mxPoint x="364.2857142857142" y="137.1428571428571" as="targetPoint" />
          </mxGeometry>
        </mxCell>
        <mxCell id="_oiNv1voT7NBTlwxmMAq-0" value="Dog" style="whiteSpace=wrap;html=1;align=center;strokeColor=#FFFFFF;fillColor=none;fontColor=#FFFFFF;" parent="bvYGP_05jQYxHPNjV4Q_-1" vertex="1">
          <mxGeometry x="180" y="670" width="100" height="40" as="geometry" />
        </mxCell>
        <mxCell id="_oiNv1voT7NBTlwxmMAq-1" value="Bites" style="shape=rhombus;perimeter=rhombusPerimeter;whiteSpace=wrap;html=1;align=center;strokeColor=#FFFFFF;fillColor=none;fontColor=#FFFFFF;" parent="bvYGP_05jQYxHPNjV4Q_-1" vertex="1">
          <mxGeometry x="320" y="740" width="120" height="60" as="geometry" />
        </mxCell>
        <mxCell id="_oiNv1voT7NBTlwxmMAq-2" value="Name" style="ellipse;whiteSpace=wrap;html=1;align=center;strokeColor=#FFFFFF;fillColor=none;fontColor=#FFFFFF;" parent="bvYGP_05jQYxHPNjV4Q_-1" vertex="1">
          <mxGeometry x="40" y="580" width="100" height="40" as="geometry" />
        </mxCell>
        <mxCell id="_oiNv1voT7NBTlwxmMAq-3" value="Age" style="ellipse;whiteSpace=wrap;html=1;align=center;strokeColor=#FFFFFF;fillColor=none;fontColor=#FFFFFF;" parent="bvYGP_05jQYxHPNjV4Q_-1" vertex="1">
          <mxGeometry x="40" y="640" width="100" height="40" as="geometry" />
        </mxCell>
        <mxCell id="_oiNv1voT7NBTlwxmMAq-4" value="Breed" style="ellipse;whiteSpace=wrap;html=1;align=center;strokeColor=#FFFFFF;fillColor=none;fontColor=#FFFFFF;" parent="bvYGP_05jQYxHPNjV4Q_-1" vertex="1">
          <mxGeometry x="40" y="700" width="100" height="40" as="geometry" />
        </mxCell>
        <mxCell id="_oiNv1voT7NBTlwxmMAq-5" value="Sex" style="ellipse;whiteSpace=wrap;html=1;align=center;strokeColor=#FFFFFF;fillColor=none;fontColor=#FFFFFF;" parent="bvYGP_05jQYxHPNjV4Q_-1" vertex="1">
          <mxGeometry x="40" y="760" width="100" height="40" as="geometry" />
        </mxCell>
        <mxCell id="_oiNv1voT7NBTlwxmMAq-6" value="Fur color" style="ellipse;whiteSpace=wrap;html=1;align=center;strokeColor=#FFFFFF;fillColor=none;fontColor=#FFFFFF;" parent="bvYGP_05jQYxHPNjV4Q_-1" vertex="1">
          <mxGeometry x="40" y="820" width="100" height="40" as="geometry" />
        </mxCell>
        <mxCell id="_oiNv1voT7NBTlwxmMAq-7" value="" style="endArrow=none;html=1;dashed=1;dashPattern=1 1;strokeColor=#FFFFFF;fontColor=#FFFFFF;" parent="bvYGP_05jQYxHPNjV4Q_-1" source="_oiNv1voT7NBTlwxmMAq-0" target="_oiNv1voT7NBTlwxmMAq-2" edge="1">
          <mxGeometry width="50" height="50" relative="1" as="geometry">
            <mxPoint x="210" y="650" as="sourcePoint" />
            <mxPoint x="260" y="600" as="targetPoint" />
          </mxGeometry>
        </mxCell>
        <mxCell id="_oiNv1voT7NBTlwxmMAq-8" value="" style="endArrow=none;html=1;dashed=1;dashPattern=1 1;strokeColor=#FFFFFF;fontColor=#FFFFFF;" parent="bvYGP_05jQYxHPNjV4Q_-1" source="_oiNv1voT7NBTlwxmMAq-0" target="_oiNv1voT7NBTlwxmMAq-3" edge="1">
          <mxGeometry width="50" height="50" relative="1" as="geometry">
            <mxPoint x="233.33333333333337" y="710" as="sourcePoint" />
            <mxPoint x="123.52941176470449" y="627.6470588235283" as="targetPoint" />
          </mxGeometry>
        </mxCell>
        <mxCell id="_oiNv1voT7NBTlwxmMAq-9" value="" style="endArrow=none;html=1;dashed=1;dashPattern=1 1;strokeColor=#FFFFFF;fontColor=#FFFFFF;" parent="bvYGP_05jQYxHPNjV4Q_-1" source="_oiNv1voT7NBTlwxmMAq-0" target="_oiNv1voT7NBTlwxmMAq-4" edge="1">
          <mxGeometry width="50" height="50" relative="1" as="geometry">
            <mxPoint x="210" y="711.25" as="sourcePoint" />
            <mxPoint x="136.47686020700291" y="683.678822577626" as="targetPoint" />
          </mxGeometry>
        </mxCell>
        <mxCell id="_oiNv1voT7NBTlwxmMAq-10" value="" style="endArrow=none;html=1;dashed=1;dashPattern=1 1;strokeColor=#FFFFFF;fontColor=#FFFFFF;" parent="bvYGP_05jQYxHPNjV4Q_-1" source="_oiNv1voT7NBTlwxmMAq-0" target="_oiNv1voT7NBTlwxmMAq-5" edge="1">
          <mxGeometry width="50" height="50" relative="1" as="geometry">
            <mxPoint x="220" y="721.25" as="sourcePoint" />
            <mxPoint x="149.27300578721747" y="726.601861669847" as="targetPoint" />
          </mxGeometry>
        </mxCell>
        <mxCell id="_oiNv1voT7NBTlwxmMAq-11" value="" style="endArrow=none;html=1;dashed=1;dashPattern=1 1;strokeColor=#FFFFFF;fontColor=#FFFFFF;" parent="bvYGP_05jQYxHPNjV4Q_-1" source="_oiNv1voT7NBTlwxmMAq-0" target="_oiNv1voT7NBTlwxmMAq-6" edge="1">
          <mxGeometry width="50" height="50" relative="1" as="geometry">
            <mxPoint x="230" y="731.25" as="sourcePoint" />
            <mxPoint x="159.27300578721747" y="736.601861669847" as="targetPoint" />
          </mxGeometry>
        </mxCell>
        <mxCell id="_oiNv1voT7NBTlwxmMAq-12" value="Person" style="whiteSpace=wrap;html=1;align=center;strokeColor=#FFFFFF;fillColor=none;fontColor=#FFFFFF;" parent="bvYGP_05jQYxHPNjV4Q_-1" vertex="1">
          <mxGeometry x="480" y="670" width="100" height="40" as="geometry" />
        </mxCell>
        <mxCell id="_oiNv1voT7NBTlwxmMAq-13" value="Name" style="ellipse;whiteSpace=wrap;html=1;align=center;strokeColor=#FFFFFF;fillColor=none;fontColor=#FFFFFF;" parent="bvYGP_05jQYxHPNjV4Q_-1" vertex="1">
          <mxGeometry x="620" y="590" width="100" height="40" as="geometry" />
        </mxCell>
        <mxCell id="_oiNv1voT7NBTlwxmMAq-14" value="Age" style="ellipse;whiteSpace=wrap;html=1;align=center;strokeColor=#FFFFFF;fillColor=none;fontColor=#FFFFFF;" parent="bvYGP_05jQYxHPNjV4Q_-1" vertex="1">
          <mxGeometry x="620" y="650" width="100" height="40" as="geometry" />
        </mxCell>
        <mxCell id="_oiNv1voT7NBTlwxmMAq-15" value="Sex" style="ellipse;whiteSpace=wrap;html=1;align=center;strokeColor=#FFFFFF;fillColor=none;fontColor=#FFFFFF;" parent="bvYGP_05jQYxHPNjV4Q_-1" vertex="1">
          <mxGeometry x="620" y="710" width="100" height="40" as="geometry" />
        </mxCell>
        <mxCell id="_oiNv1voT7NBTlwxmMAq-16" value="Height" style="ellipse;whiteSpace=wrap;html=1;align=center;strokeColor=#FFFFFF;fillColor=none;fontColor=#FFFFFF;" parent="bvYGP_05jQYxHPNjV4Q_-1" vertex="1">
          <mxGeometry x="620" y="770" width="100" height="40" as="geometry" />
        </mxCell>
        <mxCell id="_oiNv1voT7NBTlwxmMAq-17" value="Weight" style="ellipse;whiteSpace=wrap;html=1;align=center;strokeColor=#FFFFFF;fillColor=none;fontColor=#FFFFFF;" parent="bvYGP_05jQYxHPNjV4Q_-1" vertex="1">
          <mxGeometry x="620" y="830" width="100" height="40" as="geometry" />
        </mxCell>
        <mxCell id="_oiNv1voT7NBTlwxmMAq-18" value="" style="endArrow=none;html=1;dashed=1;dashPattern=1 1;strokeColor=#FFFFFF;fontColor=#FFFFFF;" parent="bvYGP_05jQYxHPNjV4Q_-1" source="_oiNv1voT7NBTlwxmMAq-12" target="_oiNv1voT7NBTlwxmMAq-13" edge="1">
          <mxGeometry width="50" height="50" relative="1" as="geometry">
            <mxPoint x="520" y="660" as="sourcePoint" />
            <mxPoint x="570" y="610" as="targetPoint" />
          </mxGeometry>
        </mxCell>
        <mxCell id="_oiNv1voT7NBTlwxmMAq-19" value="" style="endArrow=none;html=1;dashed=1;dashPattern=1 1;strokeColor=#FFFFFF;fontColor=#FFFFFF;" parent="bvYGP_05jQYxHPNjV4Q_-1" source="_oiNv1voT7NBTlwxmMAq-12" target="_oiNv1voT7NBTlwxmMAq-14" edge="1">
          <mxGeometry width="50" height="50" relative="1" as="geometry">
            <mxPoint x="543.3333333333334" y="720" as="sourcePoint" />
            <mxPoint x="433.5294117647045" y="637.6470588235283" as="targetPoint" />
          </mxGeometry>
        </mxCell>
        <mxCell id="_oiNv1voT7NBTlwxmMAq-20" value="" style="endArrow=none;html=1;dashed=1;dashPattern=1 1;strokeColor=#FFFFFF;fontColor=#FFFFFF;" parent="bvYGP_05jQYxHPNjV4Q_-1" source="_oiNv1voT7NBTlwxmMAq-12" target="_oiNv1voT7NBTlwxmMAq-15" edge="1">
          <mxGeometry width="50" height="50" relative="1" as="geometry">
            <mxPoint x="520" y="721.25" as="sourcePoint" />
            <mxPoint x="446.4768602070029" y="693.678822577626" as="targetPoint" />
          </mxGeometry>
        </mxCell>
        <mxCell id="_oiNv1voT7NBTlwxmMAq-21" value="" style="endArrow=none;html=1;dashed=1;dashPattern=1 1;strokeColor=#FFFFFF;fontColor=#FFFFFF;" parent="bvYGP_05jQYxHPNjV4Q_-1" source="_oiNv1voT7NBTlwxmMAq-12" target="_oiNv1voT7NBTlwxmMAq-16" edge="1">
          <mxGeometry width="50" height="50" relative="1" as="geometry">
            <mxPoint x="530" y="731.25" as="sourcePoint" />
            <mxPoint x="459.27300578721747" y="736.601861669847" as="targetPoint" />
          </mxGeometry>
        </mxCell>
        <mxCell id="_oiNv1voT7NBTlwxmMAq-22" value="" style="endArrow=none;html=1;dashed=1;dashPattern=1 1;strokeColor=#FFFFFF;fontColor=#FFFFFF;" parent="bvYGP_05jQYxHPNjV4Q_-1" source="_oiNv1voT7NBTlwxmMAq-12" target="_oiNv1voT7NBTlwxmMAq-17" edge="1">
          <mxGeometry width="50" height="50" relative="1" as="geometry">
            <mxPoint x="540" y="741.25" as="sourcePoint" />
            <mxPoint x="469.27300578721747" y="746.601861669847" as="targetPoint" />
          </mxGeometry>
        </mxCell>
        <mxCell id="_oiNv1voT7NBTlwxmMAq-23" value="Chip ID" style="ellipse;whiteSpace=wrap;html=1;align=center;fontStyle=4;strokeColor=#FFFFFF;fillColor=none;fontColor=#FFFFFF;" parent="bvYGP_05jQYxHPNjV4Q_-1" vertex="1">
          <mxGeometry x="40" y="520" width="100" height="40" as="geometry" />
        </mxCell>
        <mxCell id="_oiNv1voT7NBTlwxmMAq-24" value="" style="endArrow=none;html=1;dashed=1;dashPattern=1 1;strokeColor=#FFFFFF;fontColor=#FFFFFF;" parent="bvYGP_05jQYxHPNjV4Q_-1" source="_oiNv1voT7NBTlwxmMAq-0" target="_oiNv1voT7NBTlwxmMAq-23" edge="1">
          <mxGeometry width="50" height="50" relative="1" as="geometry">
            <mxPoint x="216.66666666666674" y="710" as="sourcePoint" />
            <mxPoint x="121.14427326655482" y="628.1236627999041" as="targetPoint" />
          </mxGeometry>
        </mxCell>
        <mxCell id="_oiNv1voT7NBTlwxmMAq-25" value="" style="endArrow=none;html=1;dashed=1;dashPattern=1 1;strokeColor=#FFFFFF;fontColor=#FFFFFF;" parent="bvYGP_05jQYxHPNjV4Q_-1" source="_oiNv1voT7NBTlwxmMAq-12" target="_oiNv1voT7NBTlwxmMAq-26" edge="1">
          <mxGeometry width="50" height="50" relative="1" as="geometry">
            <mxPoint x="563.3333333333333" y="720" as="sourcePoint" />
            <mxPoint x="651" y="560" as="targetPoint" />
          </mxGeometry>
        </mxCell>
        <mxCell id="_oiNv1voT7NBTlwxmMAq-26" value="Social Security Number" style="ellipse;whiteSpace=wrap;html=1;align=center;fontStyle=4;strokeColor=#FFFFFF;fillColor=none;fontColor=#FFFFFF;" parent="bvYGP_05jQYxHPNjV4Q_-1" vertex="1">
          <mxGeometry x="620" y="530" width="100" height="40" as="geometry" />
        </mxCell>
        <mxCell id="_oiNv1voT7NBTlwxmMAq-27" value="" style="endArrow=none;html=1;dashed=1;dashPattern=1 1;strokeColor=#FFFFFF;fontColor=#FFFFFF;entryX=0;entryY=0.5;entryDx=0;entryDy=0;" parent="bvYGP_05jQYxHPNjV4Q_-1" source="_oiNv1voT7NBTlwxmMAq-0" target="_oiNv1voT7NBTlwxmMAq-1" edge="1">
          <mxGeometry width="50" height="50" relative="1" as="geometry">
            <mxPoint x="270" y="650" as="sourcePoint" />
            <mxPoint x="320" y="600" as="targetPoint" />
          </mxGeometry>
        </mxCell>
        <mxCell id="_oiNv1voT7NBTlwxmMAq-28" value="" style="endArrow=none;html=1;dashed=1;dashPattern=1 1;strokeColor=#FFFFFF;fontColor=#FFFFFF;exitX=1;exitY=0.5;exitDx=0;exitDy=0;" parent="bvYGP_05jQYxHPNjV4Q_-1" source="_oiNv1voT7NBTlwxmMAq-1" target="_oiNv1voT7NBTlwxmMAq-12" edge="1">
          <mxGeometry width="50" height="50" relative="1" as="geometry">
            <mxPoint x="290" y="700" as="sourcePoint" />
            <mxPoint x="330" y="700" as="targetPoint" />
          </mxGeometry>
        </mxCell>
        <mxCell id="_oiNv1voT7NBTlwxmMAq-29" value="Owns" style="shape=rhombus;perimeter=rhombusPerimeter;whiteSpace=wrap;html=1;align=center;strokeColor=#FFFFFF;fillColor=none;fontColor=#FFFFFF;" parent="bvYGP_05jQYxHPNjV4Q_-1" vertex="1">
          <mxGeometry x="320" y="560" width="120" height="60" as="geometry" />
        </mxCell>
        <mxCell id="_oiNv1voT7NBTlwxmMAq-30" value="" style="endArrow=none;html=1;dashed=1;dashPattern=1 1;strokeColor=#FFFFFF;fontColor=#FFFFFF;entryX=0;entryY=0.5;entryDx=0;entryDy=0;" parent="bvYGP_05jQYxHPNjV4Q_-1" source="_oiNv1voT7NBTlwxmMAq-0" target="_oiNv1voT7NBTlwxmMAq-29" edge="1">
          <mxGeometry width="50" height="50" relative="1" as="geometry">
            <mxPoint x="277.4999999999998" y="720.0000000000002" as="sourcePoint" />
            <mxPoint x="360.96774193548345" y="764.516129032258" as="targetPoint" />
          </mxGeometry>
        </mxCell>
        <mxCell id="_oiNv1voT7NBTlwxmMAq-31" value="" style="endArrow=none;html=1;dashed=1;dashPattern=1 1;strokeColor=#FFFFFF;fontColor=#FFFFFF;entryX=1;entryY=0.5;entryDx=0;entryDy=0;" parent="bvYGP_05jQYxHPNjV4Q_-1" source="_oiNv1voT7NBTlwxmMAq-12" target="_oiNv1voT7NBTlwxmMAq-29" edge="1">
          <mxGeometry width="50" height="50" relative="1" as="geometry">
            <mxPoint x="269.9999999999998" y="680.0000000000002" as="sourcePoint" />
            <mxPoint x="364.2857142857142" y="617.1428571428571" as="targetPoint" />
          </mxGeometry>
        </mxCell>
        <mxCell id="sqYCb5PSZVE5MFwcgdLD-0" value="Dog" style="whiteSpace=wrap;html=1;align=center;strokeColor=#FFFFFF;fillColor=none;fontColor=#FFFFFF;" parent="bvYGP_05jQYxHPNjV4Q_-1" vertex="1">
          <mxGeometry x="328" y="1030" width="100" height="40" as="geometry" />
        </mxCell>
        <mxCell id="sqYCb5PSZVE5MFwcgdLD-1" value="Eats" style="shape=rhombus;perimeter=rhombusPerimeter;whiteSpace=wrap;html=1;align=center;strokeColor=#FFFFFF;fillColor=none;fontColor=#FFFFFF;" parent="bvYGP_05jQYxHPNjV4Q_-1" vertex="1">
          <mxGeometry x="320" y="910" width="120" height="60" as="geometry" />
        </mxCell>
        <mxCell id="sqYCb5PSZVE5MFwcgdLD-2" value="" style="endArrow=none;html=1;dashed=1;dashPattern=1 1;strokeColor=#FFFFFF;fontColor=#FFFFFF;entryX=0;entryY=0.5;entryDx=0;entryDy=0;exitX=0;exitY=0;exitDx=0;exitDy=0;" parent="bvYGP_05jQYxHPNjV4Q_-1" source="sqYCb5PSZVE5MFwcgdLD-0" target="sqYCb5PSZVE5MFwcgdLD-1" edge="1">
          <mxGeometry width="50" height="50" relative="1" as="geometry">
            <mxPoint x="425.4999999999998" y="1080.0000000000002" as="sourcePoint" />
            <mxPoint x="508.96774193548345" y="1124.516129032258" as="targetPoint" />
          </mxGeometry>
        </mxCell>
        <mxCell id="sqYCb5PSZVE5MFwcgdLD-3" value="" style="endArrow=none;html=1;dashed=1;dashPattern=1 1;strokeColor=#FFFFFF;fontColor=#FFFFFF;entryX=1;entryY=0.5;entryDx=0;entryDy=0;exitX=1;exitY=0;exitDx=0;exitDy=0;" parent="bvYGP_05jQYxHPNjV4Q_-1" source="sqYCb5PSZVE5MFwcgdLD-0" target="sqYCb5PSZVE5MFwcgdLD-1" edge="1">
          <mxGeometry width="50" height="50" relative="1" as="geometry">
            <mxPoint x="660" y="1030.0000000000002" as="sourcePoint" />
            <mxPoint x="512.2857142857142" y="977.1428571428571" as="targetPoint" />
          </mxGeometry>
        </mxCell>
      </root>
    </mxGraphModel>
  </diagram>
  <diagram name="Cardinality" id="XzGUDduIAus42WusO9PC">
    <mxGraphModel dx="348" dy="485" grid="1" gridSize="10" guides="1" tooltips="1" connect="1" arrows="1" fold="1" page="1" pageScale="1" pageWidth="850" pageHeight="1100" background="#000000" math="0" shadow="0" extFonts="Permanent Marker^https://fonts.googleapis.com/css?family=Permanent+Marker">
      <root>
        <mxCell id="6xgz0-SXkUy2ECgjSvAP-0" />
        <mxCell id="6xgz0-SXkUy2ECgjSvAP-1" parent="6xgz0-SXkUy2ECgjSvAP-0" />
        <mxCell id="6xgz0-SXkUy2ECgjSvAP-34" value="Dog" style="whiteSpace=wrap;html=1;align=center;strokeColor=#FFFFFF;fillColor=none;fontColor=#FFFFFF;" parent="6xgz0-SXkUy2ECgjSvAP-1" vertex="1">
          <mxGeometry x="88" y="160" width="100" height="40" as="geometry" />
        </mxCell>
        <mxCell id="6xgz0-SXkUy2ECgjSvAP-35" value="Eats" style="shape=rhombus;perimeter=rhombusPerimeter;whiteSpace=wrap;html=1;align=center;strokeColor=#FFFFFF;fillColor=none;fontColor=#FFFFFF;" parent="6xgz0-SXkUy2ECgjSvAP-1" vertex="1">
          <mxGeometry x="80" y="40" width="120" height="60" as="geometry" />
        </mxCell>
        <mxCell id="6xgz0-SXkUy2ECgjSvAP-36" value="" style="endArrow=none;html=1;dashed=1;dashPattern=1 1;strokeColor=#FFFFFF;fontColor=#FFFFFF;entryX=0;entryY=0.5;entryDx=0;entryDy=0;exitX=0;exitY=0;exitDx=0;exitDy=0;" parent="6xgz0-SXkUy2ECgjSvAP-1" source="6xgz0-SXkUy2ECgjSvAP-34" target="6xgz0-SXkUy2ECgjSvAP-35" edge="1">
          <mxGeometry width="50" height="50" relative="1" as="geometry">
            <mxPoint x="185.49999999999977" y="210.00000000000023" as="sourcePoint" />
            <mxPoint x="268.96774193548345" y="254.51612903225805" as="targetPoint" />
          </mxGeometry>
        </mxCell>
        <mxCell id="Bxhf7ZY1RS0iAzRQfagt-8" value="&lt;span style=&quot;background-color: rgb(0 , 0 , 0)&quot;&gt;M&lt;/span&gt;" style="edgeLabel;html=1;align=center;verticalAlign=middle;resizable=0;points=[];fontColor=#FFFFFF;" parent="6xgz0-SXkUy2ECgjSvAP-36" vertex="1" connectable="0">
          <mxGeometry x="0.6962" y="1" relative="1" as="geometry">
            <mxPoint x="7.79" y="66.35" as="offset" />
          </mxGeometry>
        </mxCell>
        <mxCell id="6xgz0-SXkUy2ECgjSvAP-37" value="" style="endArrow=none;html=1;dashed=1;dashPattern=1 1;strokeColor=#FFFFFF;fontColor=#FFFFFF;entryX=1;entryY=0.5;entryDx=0;entryDy=0;exitX=1;exitY=0;exitDx=0;exitDy=0;" parent="6xgz0-SXkUy2ECgjSvAP-1" source="6xgz0-SXkUy2ECgjSvAP-34" target="6xgz0-SXkUy2ECgjSvAP-35" edge="1">
          <mxGeometry width="50" height="50" relative="1" as="geometry">
            <mxPoint x="420" y="160.00000000000023" as="sourcePoint" />
            <mxPoint x="272.2857142857142" y="107.14285714285711" as="targetPoint" />
          </mxGeometry>
        </mxCell>
        <mxCell id="Bxhf7ZY1RS0iAzRQfagt-6" value="&lt;span style=&quot;background-color: rgb(0 , 0 , 0)&quot;&gt;1&lt;/span&gt;" style="edgeLabel;html=1;align=center;verticalAlign=middle;resizable=0;points=[];fontColor=#FFFFFF;" parent="6xgz0-SXkUy2ECgjSvAP-37" vertex="1" connectable="0">
          <mxGeometry x="0.5575" y="-1" relative="1" as="geometry">
            <mxPoint as="offset" />
          </mxGeometry>
        </mxCell>
        <mxCell id="6xgz0-SXkUy2ECgjSvAP-38" value="Entity" style="whiteSpace=wrap;html=1;align=center;strokeColor=#FFFFFF;fillColor=none;fontColor=#FFFFFF;" parent="6xgz0-SXkUy2ECgjSvAP-1" vertex="1">
          <mxGeometry x="365.5" y="50" width="100" height="40" as="geometry" />
        </mxCell>
        <mxCell id="6xgz0-SXkUy2ECgjSvAP-39" value="Relationship" style="shape=rhombus;perimeter=rhombusPerimeter;whiteSpace=wrap;html=1;align=center;strokeColor=#FFFFFF;fillColor=none;fontColor=#FFFFFF;" parent="6xgz0-SXkUy2ECgjSvAP-1" vertex="1">
          <mxGeometry x="497.5" y="40" width="120" height="60" as="geometry" />
        </mxCell>
        <mxCell id="6xgz0-SXkUy2ECgjSvAP-40" value="Entity" style="whiteSpace=wrap;html=1;align=center;strokeColor=#FFFFFF;fillColor=none;fontColor=#FFFFFF;" parent="6xgz0-SXkUy2ECgjSvAP-1" vertex="1">
          <mxGeometry x="657.5" y="50" width="100" height="40" as="geometry" />
        </mxCell>
        <mxCell id="6xgz0-SXkUy2ECgjSvAP-41" value="" style="endArrow=none;html=1;rounded=0;dashed=1;dashPattern=1 1;strokeColor=#FFFFFF;fontColor=#FFFFFF;" parent="6xgz0-SXkUy2ECgjSvAP-1" source="6xgz0-SXkUy2ECgjSvAP-38" target="6xgz0-SXkUy2ECgjSvAP-39" edge="1">
          <mxGeometry relative="1" as="geometry">
            <mxPoint x="517.5" as="sourcePoint" />
            <mxPoint x="677.5" as="targetPoint" />
          </mxGeometry>
        </mxCell>
        <mxCell id="6xgz0-SXkUy2ECgjSvAP-42" value="&lt;font color=&quot;#ffffff&quot;&gt;M&lt;/font&gt;" style="resizable=0;html=1;align=left;verticalAlign=bottom;" parent="6xgz0-SXkUy2ECgjSvAP-41" connectable="0" vertex="1">
          <mxGeometry x="-1" relative="1" as="geometry">
            <mxPoint x="5" as="offset" />
          </mxGeometry>
        </mxCell>
        <mxCell id="6xgz0-SXkUy2ECgjSvAP-43" value="" style="resizable=0;html=1;align=right;verticalAlign=bottom;fontColor=#FFFFFF;" parent="6xgz0-SXkUy2ECgjSvAP-41" connectable="0" vertex="1">
          <mxGeometry x="1" relative="1" as="geometry" />
        </mxCell>
        <mxCell id="6xgz0-SXkUy2ECgjSvAP-44" value="" style="endArrow=none;html=1;rounded=0;dashed=1;dashPattern=1 1;strokeColor=#FFFFFF;fontColor=#FFFFFF;" parent="6xgz0-SXkUy2ECgjSvAP-1" source="6xgz0-SXkUy2ECgjSvAP-39" target="6xgz0-SXkUy2ECgjSvAP-40" edge="1">
          <mxGeometry relative="1" as="geometry">
            <mxPoint x="475.5" y="80" as="sourcePoint" />
            <mxPoint x="507.5" y="80" as="targetPoint" />
          </mxGeometry>
        </mxCell>
        <mxCell id="6xgz0-SXkUy2ECgjSvAP-45" value="" style="resizable=0;html=1;align=left;verticalAlign=bottom;" parent="6xgz0-SXkUy2ECgjSvAP-44" connectable="0" vertex="1">
          <mxGeometry x="-1" relative="1" as="geometry" />
        </mxCell>
        <mxCell id="6xgz0-SXkUy2ECgjSvAP-46" value="N" style="resizable=0;html=1;align=right;verticalAlign=bottom;fontColor=#FFFFFF;" parent="6xgz0-SXkUy2ECgjSvAP-44" connectable="0" vertex="1">
          <mxGeometry x="1" relative="1" as="geometry">
            <mxPoint x="-7" as="offset" />
          </mxGeometry>
        </mxCell>
        <mxCell id="6xgz0-SXkUy2ECgjSvAP-47" value="Cyclops" style="whiteSpace=wrap;html=1;align=center;strokeColor=#FFFFFF;fillColor=none;fontColor=#FFFFFF;" parent="6xgz0-SXkUy2ECgjSvAP-1" vertex="1">
          <mxGeometry x="365.5" y="170" width="100" height="40" as="geometry" />
        </mxCell>
        <mxCell id="6xgz0-SXkUy2ECgjSvAP-48" value="has" style="shape=rhombus;perimeter=rhombusPerimeter;whiteSpace=wrap;html=1;align=center;strokeColor=#FFFFFF;fillColor=none;fontColor=#FFFFFF;" parent="6xgz0-SXkUy2ECgjSvAP-1" vertex="1">
          <mxGeometry x="497.5" y="160" width="120" height="60" as="geometry" />
        </mxCell>
        <mxCell id="6xgz0-SXkUy2ECgjSvAP-49" value="Eye" style="whiteSpace=wrap;html=1;align=center;strokeColor=#FFFFFF;fillColor=none;fontColor=#FFFFFF;" parent="6xgz0-SXkUy2ECgjSvAP-1" vertex="1">
          <mxGeometry x="657.5" y="170" width="100" height="40" as="geometry" />
        </mxCell>
        <mxCell id="6xgz0-SXkUy2ECgjSvAP-50" value="" style="endArrow=none;html=1;rounded=0;dashed=1;dashPattern=1 1;strokeColor=#FFFFFF;fontColor=#FFFFFF;" parent="6xgz0-SXkUy2ECgjSvAP-1" source="6xgz0-SXkUy2ECgjSvAP-47" target="6xgz0-SXkUy2ECgjSvAP-48" edge="1">
          <mxGeometry relative="1" as="geometry">
            <mxPoint x="517.5" y="120" as="sourcePoint" />
            <mxPoint x="677.5" y="120" as="targetPoint" />
          </mxGeometry>
        </mxCell>
        <mxCell id="6xgz0-SXkUy2ECgjSvAP-51" value="&lt;font color=&quot;#ffffff&quot;&gt;1&lt;/font&gt;" style="resizable=0;html=1;align=left;verticalAlign=bottom;" parent="6xgz0-SXkUy2ECgjSvAP-50" connectable="0" vertex="1">
          <mxGeometry x="-1" relative="1" as="geometry">
            <mxPoint x="5" as="offset" />
          </mxGeometry>
        </mxCell>
        <mxCell id="6xgz0-SXkUy2ECgjSvAP-52" value="" style="resizable=0;html=1;align=right;verticalAlign=bottom;fontColor=#FFFFFF;" parent="6xgz0-SXkUy2ECgjSvAP-50" connectable="0" vertex="1">
          <mxGeometry x="1" relative="1" as="geometry" />
        </mxCell>
        <mxCell id="6xgz0-SXkUy2ECgjSvAP-53" value="" style="endArrow=none;html=1;rounded=0;dashed=1;dashPattern=1 1;strokeColor=#FFFFFF;fontColor=#FFFFFF;" parent="6xgz0-SXkUy2ECgjSvAP-1" source="6xgz0-SXkUy2ECgjSvAP-48" target="6xgz0-SXkUy2ECgjSvAP-49" edge="1">
          <mxGeometry relative="1" as="geometry">
            <mxPoint x="475.5" y="200" as="sourcePoint" />
            <mxPoint x="507.5" y="200" as="targetPoint" />
          </mxGeometry>
        </mxCell>
        <mxCell id="6xgz0-SXkUy2ECgjSvAP-54" value="" style="resizable=0;html=1;align=left;verticalAlign=bottom;" parent="6xgz0-SXkUy2ECgjSvAP-53" connectable="0" vertex="1">
          <mxGeometry x="-1" relative="1" as="geometry" />
        </mxCell>
        <mxCell id="6xgz0-SXkUy2ECgjSvAP-55" value="1" style="resizable=0;html=1;align=right;verticalAlign=bottom;fontColor=#FFFFFF;" parent="6xgz0-SXkUy2ECgjSvAP-53" connectable="0" vertex="1">
          <mxGeometry x="1" relative="1" as="geometry">
            <mxPoint x="-7" as="offset" />
          </mxGeometry>
        </mxCell>
        <mxCell id="6xgz0-SXkUy2ECgjSvAP-56" value="Graeae" style="whiteSpace=wrap;html=1;align=center;strokeColor=#FFFFFF;fillColor=none;fontColor=#FFFFFF;" parent="6xgz0-SXkUy2ECgjSvAP-1" vertex="1">
          <mxGeometry x="365.5" y="370" width="100" height="40" as="geometry" />
        </mxCell>
        <mxCell id="Bxhf7ZY1RS0iAzRQfagt-4" value="" style="edgeStyle=orthogonalEdgeStyle;rounded=0;orthogonalLoop=1;jettySize=auto;html=1;dashed=1;dashPattern=1 1;strokeColor=#FFFFFF;fontColor=#FFFFFF;" parent="6xgz0-SXkUy2ECgjSvAP-1" source="6xgz0-SXkUy2ECgjSvAP-57" target="6xgz0-SXkUy2ECgjSvAP-58" edge="1">
          <mxGeometry relative="1" as="geometry" />
        </mxCell>
        <mxCell id="6xgz0-SXkUy2ECgjSvAP-57" value="has" style="shape=rhombus;perimeter=rhombusPerimeter;whiteSpace=wrap;html=1;align=center;strokeColor=#FFFFFF;fillColor=none;fontColor=#FFFFFF;" parent="6xgz0-SXkUy2ECgjSvAP-1" vertex="1">
          <mxGeometry x="497.5" y="300" width="120" height="60" as="geometry" />
        </mxCell>
        <mxCell id="6xgz0-SXkUy2ECgjSvAP-58" value="Eye" style="whiteSpace=wrap;html=1;align=center;strokeColor=#FFFFFF;fillColor=none;fontColor=#FFFFFF;" parent="6xgz0-SXkUy2ECgjSvAP-1" vertex="1">
          <mxGeometry x="657.5" y="310" width="100" height="40" as="geometry" />
        </mxCell>
        <mxCell id="6xgz0-SXkUy2ECgjSvAP-59" value="" style="endArrow=none;html=1;rounded=0;dashed=1;dashPattern=1 1;strokeColor=#FFFFFF;fontColor=#FFFFFF;" parent="6xgz0-SXkUy2ECgjSvAP-1" source="6xgz0-SXkUy2ECgjSvAP-56" target="6xgz0-SXkUy2ECgjSvAP-57" edge="1">
          <mxGeometry relative="1" as="geometry">
            <mxPoint x="517.5" y="260" as="sourcePoint" />
            <mxPoint x="677.5" y="260" as="targetPoint" />
          </mxGeometry>
        </mxCell>
        <mxCell id="6xgz0-SXkUy2ECgjSvAP-60" value="&lt;font color=&quot;#ffffff&quot;&gt;M&lt;/font&gt;" style="resizable=0;html=1;align=left;verticalAlign=bottom;" parent="6xgz0-SXkUy2ECgjSvAP-59" connectable="0" vertex="1">
          <mxGeometry x="-1" relative="1" as="geometry">
            <mxPoint x="5" as="offset" />
          </mxGeometry>
        </mxCell>
        <mxCell id="6xgz0-SXkUy2ECgjSvAP-61" value="" style="resizable=0;html=1;align=right;verticalAlign=bottom;fontColor=#FFFFFF;" parent="6xgz0-SXkUy2ECgjSvAP-59" connectable="0" vertex="1">
          <mxGeometry x="1" relative="1" as="geometry" />
        </mxCell>
        <mxCell id="6xgz0-SXkUy2ECgjSvAP-62" value="" style="endArrow=none;html=1;rounded=0;dashed=1;dashPattern=1 1;strokeColor=#FFFFFF;fontColor=#FFFFFF;" parent="6xgz0-SXkUy2ECgjSvAP-1" source="6xgz0-SXkUy2ECgjSvAP-57" target="6xgz0-SXkUy2ECgjSvAP-58" edge="1">
          <mxGeometry relative="1" as="geometry">
            <mxPoint x="475.5" y="340" as="sourcePoint" />
            <mxPoint x="507.5" y="340" as="targetPoint" />
          </mxGeometry>
        </mxCell>
        <mxCell id="6xgz0-SXkUy2ECgjSvAP-63" value="" style="resizable=0;html=1;align=left;verticalAlign=bottom;" parent="6xgz0-SXkUy2ECgjSvAP-62" connectable="0" vertex="1">
          <mxGeometry x="-1" relative="1" as="geometry" />
        </mxCell>
        <mxCell id="6xgz0-SXkUy2ECgjSvAP-64" value="1" style="resizable=0;html=1;align=right;verticalAlign=bottom;fontColor=#FFFFFF;" parent="6xgz0-SXkUy2ECgjSvAP-62" connectable="0" vertex="1">
          <mxGeometry x="1" relative="1" as="geometry">
            <mxPoint x="-7" as="offset" />
          </mxGeometry>
        </mxCell>
        <mxCell id="6xgz0-SXkUy2ECgjSvAP-65" value="has" style="shape=rhombus;perimeter=rhombusPerimeter;whiteSpace=wrap;html=1;align=center;strokeColor=#FFFFFF;fillColor=none;fontColor=#FFFFFF;" parent="6xgz0-SXkUy2ECgjSvAP-1" vertex="1">
          <mxGeometry x="492.16999999999996" y="410" width="120" height="60" as="geometry" />
        </mxCell>
        <mxCell id="6xgz0-SXkUy2ECgjSvAP-66" value="Tooth" style="whiteSpace=wrap;html=1;align=center;strokeColor=#FFFFFF;fillColor=none;fontColor=#FFFFFF;" parent="6xgz0-SXkUy2ECgjSvAP-1" vertex="1">
          <mxGeometry x="652.17" y="420" width="100" height="40" as="geometry" />
        </mxCell>
        <mxCell id="6xgz0-SXkUy2ECgjSvAP-67" value="" style="endArrow=none;html=1;rounded=0;dashed=1;dashPattern=1 1;strokeColor=#FFFFFF;fontColor=#FFFFFF;" parent="6xgz0-SXkUy2ECgjSvAP-1" source="6xgz0-SXkUy2ECgjSvAP-56" target="6xgz0-SXkUy2ECgjSvAP-65" edge="1">
          <mxGeometry relative="1" as="geometry">
            <mxPoint x="457.5033333333334" y="480" as="sourcePoint" />
            <mxPoint x="672.17" y="370" as="targetPoint" />
          </mxGeometry>
        </mxCell>
        <mxCell id="6xgz0-SXkUy2ECgjSvAP-68" value="&lt;font color=&quot;#ffffff&quot;&gt;M&lt;/font&gt;" style="resizable=0;html=1;align=left;verticalAlign=bottom;" parent="6xgz0-SXkUy2ECgjSvAP-67" connectable="0" vertex="1">
          <mxGeometry x="-1" relative="1" as="geometry">
            <mxPoint x="5" as="offset" />
          </mxGeometry>
        </mxCell>
        <mxCell id="6xgz0-SXkUy2ECgjSvAP-69" value="" style="resizable=0;html=1;align=right;verticalAlign=bottom;fontColor=#FFFFFF;" parent="6xgz0-SXkUy2ECgjSvAP-67" connectable="0" vertex="1">
          <mxGeometry x="1" relative="1" as="geometry" />
        </mxCell>
        <mxCell id="6xgz0-SXkUy2ECgjSvAP-70" value="" style="endArrow=none;html=1;rounded=0;dashed=1;dashPattern=1 1;strokeColor=#FFFFFF;fontColor=#FFFFFF;" parent="6xgz0-SXkUy2ECgjSvAP-1" source="6xgz0-SXkUy2ECgjSvAP-65" target="6xgz0-SXkUy2ECgjSvAP-66" edge="1">
          <mxGeometry relative="1" as="geometry">
            <mxPoint x="470.17" y="450" as="sourcePoint" />
            <mxPoint x="502.16999999999996" y="450" as="targetPoint" />
          </mxGeometry>
        </mxCell>
        <mxCell id="6xgz0-SXkUy2ECgjSvAP-71" value="" style="resizable=0;html=1;align=left;verticalAlign=bottom;" parent="6xgz0-SXkUy2ECgjSvAP-70" connectable="0" vertex="1">
          <mxGeometry x="-1" relative="1" as="geometry" />
        </mxCell>
        <mxCell id="6xgz0-SXkUy2ECgjSvAP-72" value="1" style="resizable=0;html=1;align=right;verticalAlign=bottom;fontColor=#FFFFFF;" parent="6xgz0-SXkUy2ECgjSvAP-70" connectable="0" vertex="1">
          <mxGeometry x="1" relative="1" as="geometry">
            <mxPoint x="-7" as="offset" />
          </mxGeometry>
        </mxCell>
        <mxCell id="6xgz0-SXkUy2ECgjSvAP-73" value="Painter" style="whiteSpace=wrap;html=1;align=center;strokeColor=#FFFFFF;fillColor=none;fontColor=#FFFFFF;" parent="6xgz0-SXkUy2ECgjSvAP-1" vertex="1">
          <mxGeometry x="365.5" y="530" width="100" height="40" as="geometry" />
        </mxCell>
        <mxCell id="6xgz0-SXkUy2ECgjSvAP-74" value="paints" style="shape=rhombus;perimeter=rhombusPerimeter;whiteSpace=wrap;html=1;align=center;strokeColor=#FFFFFF;fillColor=none;fontColor=#FFFFFF;" parent="6xgz0-SXkUy2ECgjSvAP-1" vertex="1">
          <mxGeometry x="497.5" y="520" width="120" height="60" as="geometry" />
        </mxCell>
        <mxCell id="6xgz0-SXkUy2ECgjSvAP-75" value="Painting" style="whiteSpace=wrap;html=1;align=center;strokeColor=#FFFFFF;fillColor=none;fontColor=#FFFFFF;" parent="6xgz0-SXkUy2ECgjSvAP-1" vertex="1">
          <mxGeometry x="657.5" y="530" width="100" height="40" as="geometry" />
        </mxCell>
        <mxCell id="6xgz0-SXkUy2ECgjSvAP-76" value="" style="endArrow=none;html=1;rounded=0;dashed=1;dashPattern=1 1;strokeColor=#FFFFFF;fontColor=#FFFFFF;" parent="6xgz0-SXkUy2ECgjSvAP-1" source="6xgz0-SXkUy2ECgjSvAP-73" target="6xgz0-SXkUy2ECgjSvAP-74" edge="1">
          <mxGeometry relative="1" as="geometry">
            <mxPoint x="517.5" y="480" as="sourcePoint" />
            <mxPoint x="677.5" y="480" as="targetPoint" />
          </mxGeometry>
        </mxCell>
        <mxCell id="6xgz0-SXkUy2ECgjSvAP-77" value="&lt;font color=&quot;#ffffff&quot;&gt;1&lt;/font&gt;" style="resizable=0;html=1;align=left;verticalAlign=bottom;" parent="6xgz0-SXkUy2ECgjSvAP-76" connectable="0" vertex="1">
          <mxGeometry x="-1" relative="1" as="geometry">
            <mxPoint x="5" as="offset" />
          </mxGeometry>
        </mxCell>
        <mxCell id="6xgz0-SXkUy2ECgjSvAP-78" value="" style="resizable=0;html=1;align=right;verticalAlign=bottom;fontColor=#FFFFFF;" parent="6xgz0-SXkUy2ECgjSvAP-76" connectable="0" vertex="1">
          <mxGeometry x="1" relative="1" as="geometry" />
        </mxCell>
        <mxCell id="6xgz0-SXkUy2ECgjSvAP-79" value="" style="endArrow=none;html=1;rounded=0;dashed=1;dashPattern=1 1;strokeColor=#FFFFFF;fontColor=#FFFFFF;" parent="6xgz0-SXkUy2ECgjSvAP-1" source="6xgz0-SXkUy2ECgjSvAP-74" target="6xgz0-SXkUy2ECgjSvAP-75" edge="1">
          <mxGeometry relative="1" as="geometry">
            <mxPoint x="475.5" y="560" as="sourcePoint" />
            <mxPoint x="507.5" y="560" as="targetPoint" />
          </mxGeometry>
        </mxCell>
        <mxCell id="6xgz0-SXkUy2ECgjSvAP-80" value="" style="resizable=0;html=1;align=left;verticalAlign=bottom;" parent="6xgz0-SXkUy2ECgjSvAP-79" connectable="0" vertex="1">
          <mxGeometry x="-1" relative="1" as="geometry" />
        </mxCell>
        <mxCell id="6xgz0-SXkUy2ECgjSvAP-81" value="M" style="resizable=0;html=1;align=right;verticalAlign=bottom;fontColor=#FFFFFF;" parent="6xgz0-SXkUy2ECgjSvAP-79" connectable="0" vertex="1">
          <mxGeometry x="1" relative="1" as="geometry">
            <mxPoint x="-7" as="offset" />
          </mxGeometry>
        </mxCell>
        <mxCell id="6xgz0-SXkUy2ECgjSvAP-82" value="Painter" style="whiteSpace=wrap;html=1;align=center;strokeColor=#FFFFFF;fillColor=none;fontColor=#FFFFFF;" parent="6xgz0-SXkUy2ECgjSvAP-1" vertex="1">
          <mxGeometry x="365.5" y="650" width="100" height="40" as="geometry" />
        </mxCell>
        <mxCell id="6xgz0-SXkUy2ECgjSvAP-83" value="paints" style="shape=rhombus;perimeter=rhombusPerimeter;whiteSpace=wrap;html=1;align=center;strokeColor=#FFFFFF;fillColor=none;fontColor=#FFFFFF;" parent="6xgz0-SXkUy2ECgjSvAP-1" vertex="1">
          <mxGeometry x="497.5" y="640" width="120" height="60" as="geometry" />
        </mxCell>
        <mxCell id="6xgz0-SXkUy2ECgjSvAP-84" value="Painting" style="whiteSpace=wrap;html=1;align=center;strokeColor=#FFFFFF;fillColor=none;fontColor=#FFFFFF;" parent="6xgz0-SXkUy2ECgjSvAP-1" vertex="1">
          <mxGeometry x="657.5" y="650" width="100" height="40" as="geometry" />
        </mxCell>
        <mxCell id="6xgz0-SXkUy2ECgjSvAP-85" value="" style="endArrow=none;html=1;rounded=0;dashed=1;dashPattern=1 1;strokeColor=#FFFFFF;fontColor=#FFFFFF;" parent="6xgz0-SXkUy2ECgjSvAP-1" source="6xgz0-SXkUy2ECgjSvAP-82" target="6xgz0-SXkUy2ECgjSvAP-83" edge="1">
          <mxGeometry relative="1" as="geometry">
            <mxPoint x="517.5" y="600" as="sourcePoint" />
            <mxPoint x="677.5" y="600" as="targetPoint" />
          </mxGeometry>
        </mxCell>
        <mxCell id="6xgz0-SXkUy2ECgjSvAP-86" value="&lt;font color=&quot;#ffffff&quot;&gt;M&lt;/font&gt;" style="resizable=0;html=1;align=left;verticalAlign=bottom;" parent="6xgz0-SXkUy2ECgjSvAP-85" connectable="0" vertex="1">
          <mxGeometry x="-1" relative="1" as="geometry">
            <mxPoint x="5" as="offset" />
          </mxGeometry>
        </mxCell>
        <mxCell id="6xgz0-SXkUy2ECgjSvAP-87" value="" style="resizable=0;html=1;align=right;verticalAlign=bottom;fontColor=#FFFFFF;" parent="6xgz0-SXkUy2ECgjSvAP-85" connectable="0" vertex="1">
          <mxGeometry x="1" relative="1" as="geometry">
            <mxPoint x="-154.5" y="115" as="offset" />
          </mxGeometry>
        </mxCell>
        <mxCell id="6xgz0-SXkUy2ECgjSvAP-88" value="" style="endArrow=none;html=1;rounded=0;dashed=1;dashPattern=1 1;strokeColor=#FFFFFF;fontColor=#FFFFFF;" parent="6xgz0-SXkUy2ECgjSvAP-1" source="6xgz0-SXkUy2ECgjSvAP-83" target="6xgz0-SXkUy2ECgjSvAP-84" edge="1">
          <mxGeometry relative="1" as="geometry">
            <mxPoint x="475.5" y="680" as="sourcePoint" />
            <mxPoint x="507.5" y="680" as="targetPoint" />
          </mxGeometry>
        </mxCell>
        <mxCell id="6xgz0-SXkUy2ECgjSvAP-89" value="" style="resizable=0;html=1;align=left;verticalAlign=bottom;" parent="6xgz0-SXkUy2ECgjSvAP-88" connectable="0" vertex="1">
          <mxGeometry x="-1" relative="1" as="geometry">
            <mxPoint x="-154.5" y="115" as="offset" />
          </mxGeometry>
        </mxCell>
        <mxCell id="6xgz0-SXkUy2ECgjSvAP-90" value="N" style="resizable=0;html=1;align=right;verticalAlign=bottom;fontColor=#FFFFFF;" parent="6xgz0-SXkUy2ECgjSvAP-88" connectable="0" vertex="1">
          <mxGeometry x="1" relative="1" as="geometry">
            <mxPoint x="-7" as="offset" />
          </mxGeometry>
        </mxCell>
      </root>
    </mxGraphModel>
  </diagram>
  <diagram name="All in one" id="JmpKyY7rNiDonDug4nNS">
    <mxGraphModel dx="348" dy="485" grid="1" gridSize="10" guides="1" tooltips="1" connect="1" arrows="1" fold="1" page="1" pageScale="1" pageWidth="850" pageHeight="1100" background="#000000" math="0" shadow="0" extFonts="Permanent Marker^https://fonts.googleapis.com/css?family=Permanent+Marker">
      <root>
        <mxCell id="mnYUARxSjos8eeQjVeQh-0" />
        <mxCell id="mnYUARxSjos8eeQjVeQh-1" parent="mnYUARxSjos8eeQjVeQh-0" />
        <mxCell id="mnYUARxSjos8eeQjVeQh-62" value="Painter" style="whiteSpace=wrap;html=1;align=center;strokeColor=#FFFFFF;fillColor=none;fontColor=#FFFFFF;" parent="mnYUARxSjos8eeQjVeQh-1" vertex="1">
          <mxGeometry x="205.5" y="270" width="100" height="40" as="geometry" />
        </mxCell>
        <mxCell id="mnYUARxSjos8eeQjVeQh-63" value="paints" style="shape=rhombus;perimeter=rhombusPerimeter;whiteSpace=wrap;html=1;align=center;strokeColor=#FFFFFF;fillColor=none;fontColor=#FFFFFF;" parent="mnYUARxSjos8eeQjVeQh-1" vertex="1">
          <mxGeometry x="337.5" y="260" width="120" height="60" as="geometry" />
        </mxCell>
        <mxCell id="mnYUARxSjos8eeQjVeQh-64" value="Painting" style="whiteSpace=wrap;html=1;align=center;strokeColor=#FFFFFF;fillColor=none;fontColor=#FFFFFF;" parent="mnYUARxSjos8eeQjVeQh-1" vertex="1">
          <mxGeometry x="497.5" y="270" width="100" height="40" as="geometry" />
        </mxCell>
        <mxCell id="mnYUARxSjos8eeQjVeQh-65" value="" style="endArrow=none;html=1;rounded=0;dashed=1;dashPattern=1 1;strokeColor=#FFFFFF;fontColor=#FFFFFF;" parent="mnYUARxSjos8eeQjVeQh-1" source="mnYUARxSjos8eeQjVeQh-62" target="mnYUARxSjos8eeQjVeQh-63" edge="1">
          <mxGeometry relative="1" as="geometry">
            <mxPoint x="357.5" y="220" as="sourcePoint" />
            <mxPoint x="517.5" y="220" as="targetPoint" />
          </mxGeometry>
        </mxCell>
        <mxCell id="mnYUARxSjos8eeQjVeQh-66" value="&lt;font color=&quot;#ffffff&quot;&gt;M&lt;/font&gt;" style="resizable=0;html=1;align=left;verticalAlign=bottom;" parent="mnYUARxSjos8eeQjVeQh-65" connectable="0" vertex="1">
          <mxGeometry x="-1" relative="1" as="geometry">
            <mxPoint x="5" as="offset" />
          </mxGeometry>
        </mxCell>
        <mxCell id="mnYUARxSjos8eeQjVeQh-67" value="" style="resizable=0;html=1;align=right;verticalAlign=bottom;fontColor=#FFFFFF;" parent="mnYUARxSjos8eeQjVeQh-65" connectable="0" vertex="1">
          <mxGeometry x="1" relative="1" as="geometry" />
        </mxCell>
        <mxCell id="mnYUARxSjos8eeQjVeQh-68" value="" style="endArrow=none;html=1;rounded=0;dashed=1;dashPattern=1 1;strokeColor=#FFFFFF;fontColor=#FFFFFF;" parent="mnYUARxSjos8eeQjVeQh-1" source="mnYUARxSjos8eeQjVeQh-63" target="mnYUARxSjos8eeQjVeQh-64" edge="1">
          <mxGeometry relative="1" as="geometry">
            <mxPoint x="315.5" y="300" as="sourcePoint" />
            <mxPoint x="347.5" y="300" as="targetPoint" />
          </mxGeometry>
        </mxCell>
        <mxCell id="mnYUARxSjos8eeQjVeQh-69" value="" style="resizable=0;html=1;align=left;verticalAlign=bottom;" parent="mnYUARxSjos8eeQjVeQh-68" connectable="0" vertex="1">
          <mxGeometry x="-1" relative="1" as="geometry" />
        </mxCell>
        <mxCell id="mnYUARxSjos8eeQjVeQh-70" value="N" style="resizable=0;html=1;align=right;verticalAlign=bottom;fontColor=#FFFFFF;" parent="mnYUARxSjos8eeQjVeQh-68" connectable="0" vertex="1">
          <mxGeometry x="1" relative="1" as="geometry">
            <mxPoint x="-7" as="offset" />
          </mxGeometry>
        </mxCell>
        <mxCell id="mnYUARxSjos8eeQjVeQh-71" value="Name" style="ellipse;whiteSpace=wrap;html=1;align=center;strokeColor=#FFFFFF;fillColor=none;fontColor=#FFFFFF;" parent="mnYUARxSjos8eeQjVeQh-1" vertex="1">
          <mxGeometry x="80" y="180" width="100" height="40" as="geometry" />
        </mxCell>
        <mxCell id="mnYUARxSjos8eeQjVeQh-72" value="Age" style="ellipse;whiteSpace=wrap;html=1;align=center;strokeColor=#FFFFFF;fillColor=none;fontColor=#FFFFFF;" parent="mnYUARxSjos8eeQjVeQh-1" vertex="1">
          <mxGeometry x="80" y="240" width="100" height="40" as="geometry" />
        </mxCell>
        <mxCell id="mnYUARxSjos8eeQjVeQh-73" value="Sex" style="ellipse;whiteSpace=wrap;html=1;align=center;strokeColor=#FFFFFF;fillColor=none;fontColor=#FFFFFF;" parent="mnYUARxSjos8eeQjVeQh-1" vertex="1">
          <mxGeometry x="80" y="300" width="100" height="40" as="geometry" />
        </mxCell>
        <mxCell id="mnYUARxSjos8eeQjVeQh-74" value="Height" style="ellipse;whiteSpace=wrap;html=1;align=center;strokeColor=#FFFFFF;fillColor=none;fontColor=#FFFFFF;" parent="mnYUARxSjos8eeQjVeQh-1" vertex="1">
          <mxGeometry x="80" y="360" width="100" height="40" as="geometry" />
        </mxCell>
        <mxCell id="mnYUARxSjos8eeQjVeQh-75" value="Weight" style="ellipse;whiteSpace=wrap;html=1;align=center;strokeColor=#FFFFFF;fillColor=none;fontColor=#FFFFFF;" parent="mnYUARxSjos8eeQjVeQh-1" vertex="1">
          <mxGeometry x="80" y="420" width="100" height="40" as="geometry" />
        </mxCell>
        <mxCell id="mnYUARxSjos8eeQjVeQh-76" value="" style="endArrow=none;html=1;dashed=1;dashPattern=1 1;strokeColor=#FFFFFF;fontColor=#FFFFFF;" parent="mnYUARxSjos8eeQjVeQh-1" source="mnYUARxSjos8eeQjVeQh-62" target="mnYUARxSjos8eeQjVeQh-71" edge="1">
          <mxGeometry width="50" height="50" relative="1" as="geometry">
            <mxPoint x="25" y="260" as="sourcePoint" />
            <mxPoint x="30" y="200" as="targetPoint" />
          </mxGeometry>
        </mxCell>
        <mxCell id="mnYUARxSjos8eeQjVeQh-77" value="" style="endArrow=none;html=1;dashed=1;dashPattern=1 1;strokeColor=#FFFFFF;fontColor=#FFFFFF;" parent="mnYUARxSjos8eeQjVeQh-1" source="mnYUARxSjos8eeQjVeQh-62" target="mnYUARxSjos8eeQjVeQh-72" edge="1">
          <mxGeometry width="50" height="50" relative="1" as="geometry">
            <mxPoint x="40" y="272.8571428571429" as="sourcePoint" />
            <mxPoint x="-106.47058823529551" y="227.64705882352837" as="targetPoint" />
          </mxGeometry>
        </mxCell>
        <mxCell id="mnYUARxSjos8eeQjVeQh-78" value="" style="endArrow=none;html=1;dashed=1;dashPattern=1 1;strokeColor=#FFFFFF;fontColor=#FFFFFF;" parent="mnYUARxSjos8eeQjVeQh-1" source="mnYUARxSjos8eeQjVeQh-62" target="mnYUARxSjos8eeQjVeQh-73" edge="1">
          <mxGeometry width="50" height="50" relative="1" as="geometry">
            <mxPoint x="40" y="294.2857142857142" as="sourcePoint" />
            <mxPoint x="-93.52313979299709" y="283.67882257762585" as="targetPoint" />
          </mxGeometry>
        </mxCell>
        <mxCell id="mnYUARxSjos8eeQjVeQh-79" value="" style="endArrow=none;html=1;dashed=1;dashPattern=1 1;strokeColor=#FFFFFF;fontColor=#FFFFFF;" parent="mnYUARxSjos8eeQjVeQh-1" source="mnYUARxSjos8eeQjVeQh-62" target="mnYUARxSjos8eeQjVeQh-74" edge="1">
          <mxGeometry width="50" height="50" relative="1" as="geometry">
            <mxPoint x="18" y="300" as="sourcePoint" />
            <mxPoint x="-80.72699421278253" y="326.60186166984704" as="targetPoint" />
          </mxGeometry>
        </mxCell>
        <mxCell id="mnYUARxSjos8eeQjVeQh-80" value="" style="endArrow=none;html=1;dashed=1;dashPattern=1 1;strokeColor=#FFFFFF;fontColor=#FFFFFF;" parent="mnYUARxSjos8eeQjVeQh-1" source="mnYUARxSjos8eeQjVeQh-62" target="mnYUARxSjos8eeQjVeQh-75" edge="1">
          <mxGeometry width="50" height="50" relative="1" as="geometry">
            <mxPoint x="7.5" y="300" as="sourcePoint" />
            <mxPoint x="-70.72699421278253" y="336.60186166984704" as="targetPoint" />
          </mxGeometry>
        </mxCell>
        <mxCell id="mnYUARxSjos8eeQjVeQh-81" value="" style="endArrow=none;html=1;dashed=1;dashPattern=1 1;strokeColor=#FFFFFF;fontColor=#FFFFFF;" parent="mnYUARxSjos8eeQjVeQh-1" source="mnYUARxSjos8eeQjVeQh-62" target="mnYUARxSjos8eeQjVeQh-82" edge="1">
          <mxGeometry width="50" height="50" relative="1" as="geometry">
            <mxPoint x="10" y="260" as="sourcePoint" />
            <mxPoint x="111" y="150" as="targetPoint" />
          </mxGeometry>
        </mxCell>
        <mxCell id="mnYUARxSjos8eeQjVeQh-82" value="Social Security Number" style="ellipse;whiteSpace=wrap;html=1;align=center;fontStyle=4;strokeColor=#FFFFFF;fillColor=none;fontColor=#FFFFFF;" parent="mnYUARxSjos8eeQjVeQh-1" vertex="1">
          <mxGeometry x="80" y="120" width="100" height="40" as="geometry" />
        </mxCell>
        <mxCell id="mnYUARxSjos8eeQjVeQh-83" value="Title" style="ellipse;whiteSpace=wrap;html=1;align=center;strokeColor=#FFFFFF;fillColor=none;fontColor=#FFFFFF;" parent="mnYUARxSjos8eeQjVeQh-1" vertex="1">
          <mxGeometry x="640" y="190" width="100" height="40" as="geometry" />
        </mxCell>
        <mxCell id="mnYUARxSjos8eeQjVeQh-84" value="Canvas type" style="ellipse;whiteSpace=wrap;html=1;align=center;strokeColor=#FFFFFF;fillColor=none;fontColor=#FFFFFF;" parent="mnYUARxSjos8eeQjVeQh-1" vertex="1">
          <mxGeometry x="640" y="250" width="100" height="40" as="geometry" />
        </mxCell>
        <mxCell id="mnYUARxSjos8eeQjVeQh-85" value="Paint type" style="ellipse;whiteSpace=wrap;html=1;align=center;strokeColor=#FFFFFF;fillColor=none;fontColor=#FFFFFF;" parent="mnYUARxSjos8eeQjVeQh-1" vertex="1">
          <mxGeometry x="640" y="310" width="100" height="40" as="geometry" />
        </mxCell>
        <mxCell id="mnYUARxSjos8eeQjVeQh-86" value="Width" style="ellipse;whiteSpace=wrap;html=1;align=center;strokeColor=#FFFFFF;fillColor=none;fontColor=#FFFFFF;" parent="mnYUARxSjos8eeQjVeQh-1" vertex="1">
          <mxGeometry x="640" y="370" width="100" height="40" as="geometry" />
        </mxCell>
        <mxCell id="mnYUARxSjos8eeQjVeQh-87" value="Height" style="ellipse;whiteSpace=wrap;html=1;align=center;strokeColor=#FFFFFF;fillColor=none;fontColor=#FFFFFF;" parent="mnYUARxSjos8eeQjVeQh-1" vertex="1">
          <mxGeometry x="640" y="430" width="100" height="40" as="geometry" />
        </mxCell>
        <mxCell id="mnYUARxSjos8eeQjVeQh-88" value="" style="endArrow=none;html=1;dashed=1;dashPattern=1 1;strokeColor=#FFFFFF;fontColor=#FFFFFF;" parent="mnYUARxSjos8eeQjVeQh-1" target="mnYUARxSjos8eeQjVeQh-83" edge="1">
          <mxGeometry width="50" height="50" relative="1" as="geometry">
            <mxPoint x="585" y="270" as="sourcePoint" />
            <mxPoint x="590" y="210" as="targetPoint" />
          </mxGeometry>
        </mxCell>
        <mxCell id="mnYUARxSjos8eeQjVeQh-89" value="" style="endArrow=none;html=1;dashed=1;dashPattern=1 1;strokeColor=#FFFFFF;fontColor=#FFFFFF;" parent="mnYUARxSjos8eeQjVeQh-1" target="mnYUARxSjos8eeQjVeQh-84" edge="1">
          <mxGeometry width="50" height="50" relative="1" as="geometry">
            <mxPoint x="600" y="282.8571428571429" as="sourcePoint" />
            <mxPoint x="453.5294117647045" y="237.64705882352837" as="targetPoint" />
          </mxGeometry>
        </mxCell>
        <mxCell id="mnYUARxSjos8eeQjVeQh-90" value="" style="endArrow=none;html=1;dashed=1;dashPattern=1 1;strokeColor=#FFFFFF;fontColor=#FFFFFF;" parent="mnYUARxSjos8eeQjVeQh-1" target="mnYUARxSjos8eeQjVeQh-85" edge="1">
          <mxGeometry width="50" height="50" relative="1" as="geometry">
            <mxPoint x="600" y="304.2857142857142" as="sourcePoint" />
            <mxPoint x="466.4768602070029" y="293.67882257762585" as="targetPoint" />
          </mxGeometry>
        </mxCell>
        <mxCell id="mnYUARxSjos8eeQjVeQh-91" value="" style="endArrow=none;html=1;dashed=1;dashPattern=1 1;strokeColor=#FFFFFF;fontColor=#FFFFFF;" parent="mnYUARxSjos8eeQjVeQh-1" target="mnYUARxSjos8eeQjVeQh-86" edge="1">
          <mxGeometry width="50" height="50" relative="1" as="geometry">
            <mxPoint x="578" y="310" as="sourcePoint" />
            <mxPoint x="479.27300578721747" y="336.60186166984704" as="targetPoint" />
          </mxGeometry>
        </mxCell>
        <mxCell id="mnYUARxSjos8eeQjVeQh-92" value="" style="endArrow=none;html=1;dashed=1;dashPattern=1 1;strokeColor=#FFFFFF;fontColor=#FFFFFF;" parent="mnYUARxSjos8eeQjVeQh-1" target="mnYUARxSjos8eeQjVeQh-87" edge="1">
          <mxGeometry width="50" height="50" relative="1" as="geometry">
            <mxPoint x="567.5" y="310" as="sourcePoint" />
            <mxPoint x="489.27300578721747" y="346.60186166984704" as="targetPoint" />
          </mxGeometry>
        </mxCell>
        <mxCell id="mnYUARxSjos8eeQjVeQh-93" value="" style="endArrow=none;html=1;dashed=1;dashPattern=1 1;strokeColor=#FFFFFF;fontColor=#FFFFFF;" parent="mnYUARxSjos8eeQjVeQh-1" target="mnYUARxSjos8eeQjVeQh-94" edge="1">
          <mxGeometry width="50" height="50" relative="1" as="geometry">
            <mxPoint x="570" y="270" as="sourcePoint" />
            <mxPoint x="671" y="160" as="targetPoint" />
          </mxGeometry>
        </mxCell>
        <mxCell id="mnYUARxSjos8eeQjVeQh-94" value="id" style="ellipse;whiteSpace=wrap;html=1;align=center;fontStyle=4;strokeColor=#FFFFFF;fillColor=none;fontColor=#FFFFFF;" parent="mnYUARxSjos8eeQjVeQh-1" vertex="1">
          <mxGeometry x="640" y="130" width="100" height="40" as="geometry" />
        </mxCell>
        <mxCell id="mnYUARxSjos8eeQjVeQh-95" value="Dog" style="whiteSpace=wrap;html=1;align=center;strokeColor=#FFFFFF;fillColor=none;fontColor=#FFFFFF;" parent="mnYUARxSjos8eeQjVeQh-1" vertex="1">
          <mxGeometry x="345.5" y="440" width="100" height="40" as="geometry" />
        </mxCell>
        <mxCell id="mnYUARxSjos8eeQjVeQh-96" value="Name" style="ellipse;whiteSpace=wrap;html=1;align=center;strokeColor=#FFFFFF;fillColor=none;fontColor=#FFFFFF;" parent="mnYUARxSjos8eeQjVeQh-1" vertex="1">
          <mxGeometry x="357.5" y="570" width="100" height="40" as="geometry" />
        </mxCell>
        <mxCell id="mnYUARxSjos8eeQjVeQh-97" value="Age" style="ellipse;whiteSpace=wrap;html=1;align=center;strokeColor=#FFFFFF;fillColor=none;fontColor=#FFFFFF;" parent="mnYUARxSjos8eeQjVeQh-1" vertex="1">
          <mxGeometry x="492.16999999999996" y="560" width="100" height="40" as="geometry" />
        </mxCell>
        <mxCell id="mnYUARxSjos8eeQjVeQh-98" value="Breed" style="ellipse;whiteSpace=wrap;html=1;align=center;strokeColor=#FFFFFF;fillColor=none;fontColor=#FFFFFF;" parent="mnYUARxSjos8eeQjVeQh-1" vertex="1">
          <mxGeometry x="197.5" y="520" width="100" height="40" as="geometry" />
        </mxCell>
        <mxCell id="mnYUARxSjos8eeQjVeQh-99" value="Sex" style="ellipse;whiteSpace=wrap;html=1;align=center;strokeColor=#FFFFFF;fillColor=none;fontColor=#FFFFFF;" parent="mnYUARxSjos8eeQjVeQh-1" vertex="1">
          <mxGeometry x="307.5" y="520" width="100" height="40" as="geometry" />
        </mxCell>
        <mxCell id="mnYUARxSjos8eeQjVeQh-100" value="Fur color" style="ellipse;whiteSpace=wrap;html=1;align=center;strokeColor=#FFFFFF;fillColor=none;fontColor=#FFFFFF;" parent="mnYUARxSjos8eeQjVeQh-1" vertex="1">
          <mxGeometry x="407.5" y="520" width="100" height="40" as="geometry" />
        </mxCell>
        <mxCell id="mnYUARxSjos8eeQjVeQh-101" value="" style="endArrow=none;html=1;dashed=1;dashPattern=1 1;strokeColor=#FFFFFF;fontColor=#FFFFFF;" parent="mnYUARxSjos8eeQjVeQh-1" source="mnYUARxSjos8eeQjVeQh-95" target="mnYUARxSjos8eeQjVeQh-96" edge="1">
          <mxGeometry width="50" height="50" relative="1" as="geometry">
            <mxPoint x="375.5" y="420" as="sourcePoint" />
            <mxPoint x="425.5" y="370" as="targetPoint" />
          </mxGeometry>
        </mxCell>
        <mxCell id="mnYUARxSjos8eeQjVeQh-102" value="" style="endArrow=none;html=1;dashed=1;dashPattern=1 1;strokeColor=#FFFFFF;fontColor=#FFFFFF;" parent="mnYUARxSjos8eeQjVeQh-1" source="mnYUARxSjos8eeQjVeQh-95" target="mnYUARxSjos8eeQjVeQh-97" edge="1">
          <mxGeometry width="50" height="50" relative="1" as="geometry">
            <mxPoint x="398.83333333333337" y="480" as="sourcePoint" />
            <mxPoint x="289.0294117647045" y="397.64705882352837" as="targetPoint" />
          </mxGeometry>
        </mxCell>
        <mxCell id="mnYUARxSjos8eeQjVeQh-103" value="" style="endArrow=none;html=1;dashed=1;dashPattern=1 1;strokeColor=#FFFFFF;fontColor=#FFFFFF;" parent="mnYUARxSjos8eeQjVeQh-1" source="mnYUARxSjos8eeQjVeQh-95" target="mnYUARxSjos8eeQjVeQh-98" edge="1">
          <mxGeometry width="50" height="50" relative="1" as="geometry">
            <mxPoint x="375.5" y="481.25" as="sourcePoint" />
            <mxPoint x="301.9768602070029" y="453.67882257762585" as="targetPoint" />
          </mxGeometry>
        </mxCell>
        <mxCell id="mnYUARxSjos8eeQjVeQh-104" value="" style="endArrow=none;html=1;dashed=1;dashPattern=1 1;strokeColor=#FFFFFF;fontColor=#FFFFFF;" parent="mnYUARxSjos8eeQjVeQh-1" source="mnYUARxSjos8eeQjVeQh-95" target="mnYUARxSjos8eeQjVeQh-99" edge="1">
          <mxGeometry width="50" height="50" relative="1" as="geometry">
            <mxPoint x="385.5" y="491.25" as="sourcePoint" />
            <mxPoint x="314.77300578721747" y="496.60186166984704" as="targetPoint" />
          </mxGeometry>
        </mxCell>
        <mxCell id="mnYUARxSjos8eeQjVeQh-105" value="" style="endArrow=none;html=1;dashed=1;dashPattern=1 1;strokeColor=#FFFFFF;fontColor=#FFFFFF;" parent="mnYUARxSjos8eeQjVeQh-1" source="mnYUARxSjos8eeQjVeQh-95" target="mnYUARxSjos8eeQjVeQh-100" edge="1">
          <mxGeometry width="50" height="50" relative="1" as="geometry">
            <mxPoint x="395.5" y="501.25" as="sourcePoint" />
            <mxPoint x="324.77300578721747" y="506.60186166984704" as="targetPoint" />
          </mxGeometry>
        </mxCell>
        <mxCell id="mnYUARxSjos8eeQjVeQh-106" value="Chip ID" style="ellipse;whiteSpace=wrap;html=1;align=center;fontStyle=4;strokeColor=#FFFFFF;fillColor=none;fontColor=#FFFFFF;" parent="mnYUARxSjos8eeQjVeQh-1" vertex="1">
          <mxGeometry x="237.5" y="570" width="100" height="40" as="geometry" />
        </mxCell>
        <mxCell id="mnYUARxSjos8eeQjVeQh-107" value="" style="endArrow=none;html=1;dashed=1;dashPattern=1 1;strokeColor=#FFFFFF;fontColor=#FFFFFF;" parent="mnYUARxSjos8eeQjVeQh-1" source="mnYUARxSjos8eeQjVeQh-95" target="mnYUARxSjos8eeQjVeQh-106" edge="1">
          <mxGeometry width="50" height="50" relative="1" as="geometry">
            <mxPoint x="382.16666666666674" y="480" as="sourcePoint" />
            <mxPoint x="286.6442732665548" y="398.1236627999042" as="targetPoint" />
          </mxGeometry>
        </mxCell>
        <mxCell id="mnYUARxSjos8eeQjVeQh-108" value="owns" style="shape=rhombus;perimeter=rhombusPerimeter;whiteSpace=wrap;html=1;align=center;strokeColor=#FFFFFF;fillColor=none;fontColor=#FFFFFF;" parent="mnYUARxSjos8eeQjVeQh-1" vertex="1">
          <mxGeometry x="247.49999999999994" y="350" width="120" height="60" as="geometry" />
        </mxCell>
        <mxCell id="mnYUARxSjos8eeQjVeQh-109" value="" style="endArrow=none;html=1;rounded=0;dashed=1;dashPattern=1 1;strokeColor=#FFFFFF;fontColor=#FFFFFF;exitX=0.5;exitY=1;exitDx=0;exitDy=0;entryX=0.5;entryY=0;entryDx=0;entryDy=0;" parent="mnYUARxSjos8eeQjVeQh-1" source="mnYUARxSjos8eeQjVeQh-62" target="mnYUARxSjos8eeQjVeQh-108" edge="1">
          <mxGeometry relative="1" as="geometry">
            <mxPoint x="315.5" y="300" as="sourcePoint" />
            <mxPoint x="347.5" y="300" as="targetPoint" />
          </mxGeometry>
        </mxCell>
        <mxCell id="mnYUARxSjos8eeQjVeQh-110" value="&lt;font color=&quot;#ffffff&quot;&gt;M&lt;/font&gt;" style="resizable=0;html=1;align=left;verticalAlign=bottom;" parent="mnYUARxSjos8eeQjVeQh-109" connectable="0" vertex="1">
          <mxGeometry x="-1" relative="1" as="geometry">
            <mxPoint x="22" y="20" as="offset" />
          </mxGeometry>
        </mxCell>
        <mxCell id="mnYUARxSjos8eeQjVeQh-111" value="" style="resizable=0;html=1;align=right;verticalAlign=bottom;fontColor=#FFFFFF;" parent="mnYUARxSjos8eeQjVeQh-109" connectable="0" vertex="1">
          <mxGeometry x="1" relative="1" as="geometry" />
        </mxCell>
        <mxCell id="mnYUARxSjos8eeQjVeQh-112" value="" style="endArrow=none;html=1;rounded=0;dashed=1;dashPattern=1 1;strokeColor=#FFFFFF;fontColor=#FFFFFF;exitX=0.5;exitY=1;exitDx=0;exitDy=0;" parent="mnYUARxSjos8eeQjVeQh-1" source="mnYUARxSjos8eeQjVeQh-108" edge="1">
          <mxGeometry relative="1" as="geometry">
            <mxPoint x="467.5" y="300" as="sourcePoint" />
            <mxPoint x="347.5" y="440" as="targetPoint" />
          </mxGeometry>
        </mxCell>
        <mxCell id="mnYUARxSjos8eeQjVeQh-113" value="" style="resizable=0;html=1;align=left;verticalAlign=bottom;" parent="mnYUARxSjos8eeQjVeQh-112" connectable="0" vertex="1">
          <mxGeometry x="-1" relative="1" as="geometry" />
        </mxCell>
        <mxCell id="mnYUARxSjos8eeQjVeQh-114" value="N" style="resizable=0;html=1;align=right;verticalAlign=bottom;fontColor=#FFFFFF;" parent="mnYUARxSjos8eeQjVeQh-112" connectable="0" vertex="1">
          <mxGeometry x="1" relative="1" as="geometry">
            <mxPoint x="9.530000000000001" y="-0.35" as="offset" />
          </mxGeometry>
        </mxCell>
        <mxCell id="mnYUARxSjos8eeQjVeQh-115" style="edgeStyle=orthogonalEdgeStyle;rounded=0;orthogonalLoop=1;jettySize=auto;html=1;exitX=0.5;exitY=1;exitDx=0;exitDy=0;entryX=0.3;entryY=0.75;entryDx=0;entryDy=0;entryPerimeter=0;dashed=1;dashPattern=1 1;strokeColor=#FFFFFF;fontColor=#FFFFFF;" parent="mnYUARxSjos8eeQjVeQh-1" source="mnYUARxSjos8eeQjVeQh-97" target="mnYUARxSjos8eeQjVeQh-97" edge="1">
          <mxGeometry relative="1" as="geometry" />
        </mxCell>
        <mxCell id="mnYUARxSjos8eeQjVeQh-116" value="tears up" style="shape=rhombus;perimeter=rhombusPerimeter;whiteSpace=wrap;html=1;align=center;strokeColor=#FFFFFF;fillColor=none;fontColor=#FFFFFF;" parent="mnYUARxSjos8eeQjVeQh-1" vertex="1">
          <mxGeometry x="437.5" y="360" width="120" height="60" as="geometry" />
        </mxCell>
        <mxCell id="mnYUARxSjos8eeQjVeQh-117" value="" style="endArrow=none;html=1;rounded=0;dashed=1;dashPattern=1 1;strokeColor=#FFFFFF;fontColor=#FFFFFF;exitX=0.617;exitY=0.9;exitDx=0;exitDy=0;entryX=1;entryY=0;entryDx=0;entryDy=0;exitPerimeter=0;" parent="mnYUARxSjos8eeQjVeQh-1" source="mnYUARxSjos8eeQjVeQh-116" target="mnYUARxSjos8eeQjVeQh-95" edge="1">
          <mxGeometry relative="1" as="geometry">
            <mxPoint x="317.5" y="420" as="sourcePoint" />
            <mxPoint x="357.5" y="450" as="targetPoint" />
          </mxGeometry>
        </mxCell>
        <mxCell id="mnYUARxSjos8eeQjVeQh-118" value="" style="resizable=0;html=1;align=left;verticalAlign=bottom;" parent="mnYUARxSjos8eeQjVeQh-117" connectable="0" vertex="1">
          <mxGeometry x="-1" relative="1" as="geometry" />
        </mxCell>
        <mxCell id="mnYUARxSjos8eeQjVeQh-119" value="1" style="resizable=0;html=1;align=right;verticalAlign=bottom;fontColor=#FFFFFF;" parent="mnYUARxSjos8eeQjVeQh-117" connectable="0" vertex="1">
          <mxGeometry x="1" relative="1" as="geometry">
            <mxPoint x="-7" as="offset" />
          </mxGeometry>
        </mxCell>
        <mxCell id="mnYUARxSjos8eeQjVeQh-120" value="" style="endArrow=none;html=1;rounded=0;dashed=1;dashPattern=1 1;strokeColor=#FFFFFF;fontColor=#FFFFFF;exitX=0.5;exitY=1;exitDx=0;exitDy=0;entryX=0.5;entryY=0;entryDx=0;entryDy=0;" parent="mnYUARxSjos8eeQjVeQh-1" source="mnYUARxSjos8eeQjVeQh-64" target="mnYUARxSjos8eeQjVeQh-116" edge="1">
          <mxGeometry relative="1" as="geometry">
            <mxPoint x="265.5" y="320" as="sourcePoint" />
            <mxPoint x="317.5" y="360" as="targetPoint" />
          </mxGeometry>
        </mxCell>
        <mxCell id="mnYUARxSjos8eeQjVeQh-121" value="&lt;font color=&quot;#ffffff&quot;&gt;M&lt;/font&gt;" style="resizable=0;html=1;align=left;verticalAlign=bottom;" parent="mnYUARxSjos8eeQjVeQh-120" connectable="0" vertex="1">
          <mxGeometry x="-1" relative="1" as="geometry">
            <mxPoint x="-30" y="20" as="offset" />
          </mxGeometry>
        </mxCell>
        <mxCell id="mnYUARxSjos8eeQjVeQh-122" value="" style="resizable=0;html=1;align=right;verticalAlign=bottom;fontColor=#FFFFFF;" parent="mnYUARxSjos8eeQjVeQh-120" connectable="0" vertex="1">
          <mxGeometry x="1" relative="1" as="geometry" />
        </mxCell>
      </root>
    </mxGraphModel>
  </diagram>
</mxfile>
